<svg width="38" height="35" viewBox="0 0 38 35" fill="none" xmlns="http://www.w3.org/2000/svg">
<path d="M25.5938 30.625H10.9506C9.99354 30.625 9.51499 30.625 9.29339 30.4503C9.10111 30.2987 8.99907 30.0713 9.01891 29.8386C9.04178 29.5704 9.38016 29.2581 10.0569 28.6334L23.4904 16.2332C24.1161 15.6557 24.4289 15.367 24.7896 15.2588C25.1069 15.1636 25.4487 15.1636 25.766 15.2588C26.1268 15.367 26.4396 15.6557 27.0652 16.2332L33.1771 21.875V23.625M25.5938 30.625C28.2482 30.625 29.5754 30.625 30.5893 30.1482C31.4811 29.7287 32.2061 29.0594 32.6605 28.2362C33.1771 27.3003 33.1771 26.0752 33.1771 23.625M25.5938 30.625H12.323C9.66854 30.625 8.34133 30.625 7.32748 30.1482C6.43567 29.7287 5.71061 29.0594 5.25621 28.2362C4.73962 27.3003 4.73962 26.0752 4.73962 23.625V11.375C4.73962 8.92477 4.73962 7.69966 5.25621 6.76379C5.71061 5.94058 6.43567 5.27129 7.32748 4.85185C8.34133 4.375 9.66854 4.375 12.323 4.375H25.5938C28.2482 4.375 29.5754 4.375 30.5893 4.85185C31.4811 5.27129 32.2061 5.94058 32.6605 6.76379C33.1771 7.69966 33.1771 8.92477 33.1771 11.375V23.625M16.5886 12.3958C16.5886 14.0067 15.1739 15.3125 13.4289 15.3125C11.6838 15.3125 10.2691 14.0067 10.2691 12.3958C10.2691 10.785 11.6838 9.47917 13.4289 9.47917C15.1739 9.47917 16.5886 10.785 16.5886 12.3958Z" stroke="#u" stroke-width="2" stroke-linecap="round" stroke-linejoin="round"/>
</svg>
