<svg width="30" height="30" viewBox="0 0 30 30" fill="none" xmlns="http://www.w3.org/2000/svg">
<path d="M17.5004 26.25H12.5004M2.86767 7.27487C2.84974 5.46068 3.82784 3.76656 5.40794 2.875M27.1281 7.27487C27.1461 5.46069 26.168 3.76657 24.5879 2.875M22.5004 10C22.5004 8.01088 21.7102 6.10322 20.3037 4.6967C18.8972 3.29018 16.9895 2.5 15.0004 2.5C13.0112 2.5 11.1036 3.29018 9.69707 4.6967C8.29055 6.10322 7.50037 8.01088 7.50037 10C7.50037 13.8627 6.52596 16.5074 5.43745 18.2568C4.51928 19.7323 4.0602 20.4701 4.07703 20.6759C4.09567 20.9038 4.14395 20.9907 4.32759 21.127C4.49345 21.25 5.24111 21.25 6.73644 21.25H23.2643C24.7596 21.25 25.5073 21.25 25.6732 21.127C25.8568 20.9907 25.9051 20.9038 25.9237 20.6759C25.9406 20.4701 25.4815 19.7323 24.5633 18.2568C23.4748 16.5074 22.5004 13.8627 22.5004 10Z" stroke="#EFF6FC" stroke-width="2" stroke-linecap="round" stroke-linejoin="round"/>
</svg>
