<svg width="30" height="30" viewBox="0 0 30 30" fill="none" xmlns="http://www.w3.org/2000/svg">
<path d="M15 18.75C17.0711 18.75 18.75 17.0711 18.75 15C18.75 12.9289 17.0711 11.25 15 11.25C12.9289 11.25 11.25 12.9289 11.25 15C11.25 17.0711 12.9289 18.75 15 18.75Z" stroke="#EFF6FC" stroke-width="2" stroke-linecap="round" stroke-linejoin="round"/>
<path d="M23.4091 18.4091C23.2578 18.7518 23.2127 19.132 23.2795 19.5007C23.3464 19.8693 23.5221 20.2095 23.7841 20.4773L23.8523 20.5455C24.0636 20.7565 24.2312 21.0072 24.3456 21.2831C24.46 21.559 24.5188 21.8547 24.5188 22.1534C24.5188 22.4521 24.46 22.7478 24.3456 23.0237C24.2312 23.2996 24.0636 23.5503 23.8523 23.7614C23.6412 23.9727 23.3905 24.1403 23.1146 24.2547C22.8387 24.3691 22.543 24.4279 22.2443 24.4279C21.9456 24.4279 21.6499 24.3691 21.374 24.2547C21.0981 24.1403 20.8474 23.9727 20.6364 23.7614L20.5682 23.6932C20.3004 23.4312 19.9602 23.2555 19.5916 23.1886C19.2229 23.1218 18.8427 23.1669 18.5 23.3182C18.1639 23.4622 17.8773 23.7014 17.6753 24.0063C17.4734 24.3112 17.3651 24.6684 17.3636 25.0341V25.2273C17.3636 25.83 17.1242 26.4081 16.698 26.8343C16.2718 27.2606 15.6937 27.5 15.0909 27.5C14.4881 27.5 13.9101 27.2606 13.4838 26.8343C13.0576 26.4081 12.8182 25.83 12.8182 25.2273V25.125C12.8094 24.7489 12.6876 24.3841 12.4688 24.0781C12.2499 23.7721 11.944 23.539 11.5909 23.4091C11.2482 23.2578 10.868 23.2127 10.4993 23.2795C10.1307 23.3464 9.79054 23.5221 9.52273 23.7841L9.45455 23.8523C9.24347 24.0636 8.99281 24.2312 8.71691 24.3456C8.44101 24.46 8.14526 24.5188 7.84659 24.5188C7.54792 24.5188 7.25218 24.46 6.97627 24.3456C6.70037 24.2312 6.44971 24.0636 6.23864 23.8523C6.02733 23.6412 5.85969 23.3905 5.74532 23.1146C5.63095 22.8387 5.57208 22.543 5.57208 22.2443C5.57208 21.9456 5.63095 21.6499 5.74532 21.374C5.85969 21.0981 6.02733 20.8474 6.23864 20.6364L6.30682 20.5682C6.56879 20.3004 6.74453 19.9602 6.81137 19.5916C6.87821 19.2229 6.83309 18.8427 6.68182 18.5C6.53777 18.1639 6.29859 17.8773 5.99371 17.6753C5.68884 17.4734 5.33158 17.3651 4.96591 17.3636H4.77273C4.16996 17.3636 3.59189 17.1242 3.16567 16.698C2.73945 16.2718 2.5 15.6937 2.5 15.0909C2.5 14.4881 2.73945 13.9101 3.16567 13.4838C3.59189 13.0576 4.16996 12.8182 4.77273 12.8182H4.875C5.25113 12.8094 5.61591 12.6876 5.92193 12.4688C6.22795 12.2499 6.46104 11.944 6.59091 11.5909C6.74218 11.2482 6.7873 10.868 6.72046 10.4993C6.65362 10.1307 6.47788 9.79054 6.21591 9.52273L6.14773 9.45455C5.93642 9.24347 5.76878 8.99281 5.65441 8.71691C5.54004 8.44101 5.48117 8.14526 5.48117 7.84659C5.48117 7.54792 5.54004 7.25218 5.65441 6.97627C5.76878 6.70037 5.93642 6.44971 6.14773 6.23864C6.3588 6.02733 6.60946 5.85969 6.88536 5.74532C7.16127 5.63095 7.45701 5.57208 7.75568 5.57208C8.05435 5.57208 8.3501 5.63095 8.626 5.74532C8.90191 5.85969 9.15256 6.02733 9.36364 6.23864L9.43182 6.30682C9.69964 6.56879 10.0398 6.74453 10.4084 6.81137C10.7771 6.87821 11.1573 6.83309 11.5 6.68182H11.5909C11.927 6.53777 12.2137 6.29859 12.4156 5.99371C12.6175 5.68884 12.7258 5.33158 12.7273 4.96591V4.77273C12.7273 4.16996 12.9667 3.59189 13.3929 3.16567C13.8192 2.73945 14.3972 2.5 15 2.5C15.6028 2.5 16.1808 2.73945 16.6071 3.16567C17.0333 3.59189 17.2727 4.16996 17.2727 4.77273V4.875C17.2742 5.24067 17.3825 5.59793 17.5844 5.9028C17.7863 6.20768 18.073 6.44686 18.4091 6.59091C18.7518 6.74218 19.132 6.7873 19.5007 6.72046C19.8693 6.65362 20.2095 6.47788 20.4773 6.21591L20.5455 6.14773C20.7565 5.93642 21.0072 5.76878 21.2831 5.65441C21.559 5.54004 21.8547 5.48117 22.1534 5.48117C22.4521 5.48117 22.7478 5.54004 23.0237 5.65441C23.2996 5.76878 23.5503 5.93642 23.7614 6.14773C23.9727 6.3588 24.1403 6.60946 24.2547 6.88536C24.3691 7.16127 24.4279 7.45701 24.4279 7.75568C24.4279 8.05435 24.3691 8.3501 24.2547 8.626C24.1403 8.90191 23.9727 9.15256 23.7614 9.36364L23.6932 9.43182C23.4312 9.69964 23.2555 10.0398 23.1886 10.4084C23.1218 10.7771 23.1669 11.1573 23.3182 11.5V11.5909C23.4622 11.927 23.7014 12.2137 24.0063 12.4156C24.3112 12.6175 24.6684 12.7258 25.0341 12.7273H25.2273C25.83 12.7273 26.4081 12.9667 26.8343 13.3929C27.2606 13.8192 27.5 14.3972 27.5 15C27.5 15.6028 27.2606 16.1808 26.8343 16.6071C26.4081 17.0333 25.83 17.2727 25.2273 17.2727H25.125C24.7593 17.2742 24.4021 17.3825 24.0972 17.5844C23.7923 17.7863 23.5531 18.073 23.4091 18.4091Z" stroke="#EFF6FC" stroke-width="2" stroke-linecap="round" stroke-linejoin="round"/>
</svg>
