<svg width="14" height="16" viewBox="0 0 14 16" fill="none" xmlns="http://www.w3.org/2000/svg">
<path d="M7.2902 0.660522C5.54521 0.68434 3.87761 1.47914 2.64363 2.87515C1.40964 4.27116 0.707088 6.1577 0.686035 8.13182C0.707088 10.1059 1.40964 11.9925 2.64363 13.3885C3.87761 14.7845 5.54521 15.5793 7.2902 15.6031C9.03519 15.5793 10.7028 14.7845 11.9368 13.3885C13.1708 11.9925 13.8733 10.1059 13.8944 8.13182C13.8733 6.1577 13.1708 4.27116 11.9368 2.87515C10.7028 1.47914 9.03519 0.68434 7.2902 0.660522ZM11.064 8.66548H7.76193V12.4011H6.81847V8.66548H3.51639V7.59815H6.81847V3.86251H7.76193V7.59815H11.064V8.66548Z" fill="white"/>
</svg>
