<svg width="25" height="25" viewBox="0 0 25 25" fill="none" xmlns="http://www.w3.org/2000/svg">
<g clip-path="url(#clip0_904_419)">
<path d="M10.1944 10.2849C9.26567 10.2849 8.35777 10.0094 7.58563 9.49325C6.81348 8.97711 6.21179 8.24352 5.85668 7.38532C5.50157 6.52712 5.40901 5.58287 5.59071 4.67204C5.77241 3.76122 6.22021 2.92477 6.87743 2.26851C7.53466 1.61226 8.37177 1.16571 9.28286 0.985356C10.194 0.805004 11.1381 0.898961 11.9957 1.25534C12.8534 1.61171 13.5861 2.21449 14.1011 2.9874C14.6161 3.76031 14.8903 4.66862 14.8889 5.59739C14.8852 6.84066 14.3892 8.03187 13.5094 8.91035C12.6297 9.78883 11.4377 10.2831 10.1944 10.2849V10.2849ZM10.1944 2.29183C9.54066 2.29183 8.90157 2.4857 8.35797 2.84892C7.81438 3.21214 7.3907 3.72839 7.14051 4.33241C6.89032 4.93642 6.82486 5.60105 6.9524 6.24227C7.07995 6.88348 7.39477 7.47248 7.85706 7.93477C8.31935 8.39706 8.90834 8.71188 9.54956 8.83943C10.1908 8.96697 10.8554 8.90151 11.4594 8.65132C12.0634 8.40113 12.5797 7.97745 12.9429 7.43386C13.3061 6.89026 13.5 6.25116 13.5 5.59739C13.5 4.7207 13.1517 3.87992 12.5318 3.26001C11.9119 2.64009 11.0711 2.29183 10.1944 2.29183V2.29183Z" fill="white"/>
<path d="M11.4028 22.0001C11.251 21.8483 11.134 21.6654 11.0596 21.464C10.9853 21.2626 10.9555 21.0475 10.9722 20.8335H2.7778V16.8196C3.76246 15.7689 4.95677 14.9367 6.28342 14.3769C7.61008 13.817 9.03951 13.542 10.4792 13.5696H10.9792C10.9473 13.3367 10.9696 13.0997 11.0443 12.8769C11.1189 12.654 11.244 12.4515 11.4098 12.2849L11.4931 12.2085C11.1667 12.2085 10.7986 12.1668 10.4792 12.1668C8.78503 12.1266 7.1031 12.4633 5.55501 13.1527C4.00692 13.8421 2.63137 14.8668 1.5278 16.1529C1.43765 16.2731 1.38892 16.4193 1.38892 16.5696V20.8335C1.38892 21.2018 1.53524 21.5551 1.79571 21.8156C2.05618 22.076 2.40945 22.2224 2.7778 22.2224H11.5973L11.4028 22.0001Z" fill="white"/>
<path d="M18.6597 11.3125C18.694 11.3054 18.7295 11.3054 18.7638 11.3125C18.7294 11.3062 18.6941 11.3062 18.6597 11.3125V11.3125Z" fill="white"/>
<path d="M23.3889 16.1947L22 15.7711C21.9007 15.4314 21.7657 15.1031 21.5972 14.7919L22.2917 13.5002C22.3143 13.4486 22.3197 13.391 22.3072 13.336C22.2947 13.281 22.2649 13.2315 22.2222 13.1947L21.2153 12.1877C21.1772 12.1465 21.1264 12.1193 21.0709 12.1105C21.0155 12.1017 20.9587 12.1118 20.9097 12.1391L19.6319 12.8336C19.3173 12.6567 18.9843 12.5147 18.6389 12.41L18.2153 11.0211C18.1973 10.9699 18.1632 10.9261 18.1181 10.896C18.073 10.8659 18.0194 10.8513 17.9653 10.8544H16.5417C16.487 10.8538 16.4336 10.8711 16.3897 10.9037C16.3458 10.9363 16.3138 10.9824 16.2986 11.035L15.875 12.4238C15.5272 12.525 15.1918 12.6648 14.875 12.8405L13.6111 12.1461C13.5632 12.1192 13.5076 12.1094 13.4533 12.1183C13.3991 12.1271 13.3495 12.154 13.3125 12.1947L12.2847 13.1947C12.2466 13.2348 12.2221 13.2859 12.2146 13.3407C12.2071 13.3956 12.2171 13.4514 12.2431 13.5002L12.9375 14.7641C12.7538 15.0771 12.607 15.4104 12.5 15.7572L11.1111 16.1739C11.0586 16.189 11.0125 16.221 10.9799 16.2649C10.9472 16.3088 10.9299 16.3622 10.9306 16.4169V17.8405C10.9347 17.8907 10.9542 17.9383 10.9866 17.9769C11.0189 18.0154 11.0624 18.043 11.1111 18.0558L12.5 18.4794C12.6026 18.8201 12.7424 19.1484 12.9167 19.4586L12.2222 20.785C12.1957 20.8325 12.1855 20.8874 12.193 20.9413C12.2005 20.9951 12.2254 21.0451 12.2639 21.0836L13.2708 22.0905C13.3102 22.1298 13.3609 22.1556 13.4157 22.1643C13.4706 22.173 13.5268 22.1642 13.5764 22.1391L14.875 21.4447C15.184 21.6109 15.51 21.7436 15.8472 21.8405L16.2639 23.2294C16.281 23.2808 16.3135 23.3257 16.3569 23.358C16.4004 23.3903 16.4528 23.4084 16.5069 23.41H17.9306C17.985 23.4095 18.0378 23.3917 18.0815 23.3593C18.1252 23.3268 18.1574 23.2814 18.1736 23.2294L18.5972 21.8058C18.93 21.7088 19.2513 21.5761 19.5556 21.41L20.8681 22.1044C20.9163 22.13 20.9716 22.1392 21.0256 22.1304C21.0795 22.1216 21.129 22.0954 21.1667 22.0558L22.2222 21.1113C22.2506 21.0706 22.2658 21.0221 22.2658 20.9725C22.2658 20.9228 22.2506 20.8743 22.2222 20.8336L21.5278 19.528C21.6964 19.2217 21.8314 18.898 21.9306 18.5627L23.3194 18.1391C23.372 18.1239 23.4181 18.0919 23.4507 18.048C23.4833 18.0041 23.5006 17.9508 23.5 17.8961V16.4377C23.5064 16.3909 23.4993 16.3431 23.4797 16.3001C23.46 16.2571 23.4285 16.2205 23.3889 16.1947V16.1947ZM17.2569 19.4447C16.7976 19.4461 16.3482 19.311 15.9657 19.0567C15.5832 18.8023 15.2849 18.4402 15.1085 18.0161C14.932 17.592 14.8855 17.125 14.9748 16.6744C15.0641 16.2239 15.2851 15.81 15.6099 15.4852C15.9347 15.1604 16.3486 14.9393 16.7992 14.85C17.2498 14.7608 17.7167 14.8073 18.1408 14.9837C18.5649 15.1601 18.9271 15.4585 19.1814 15.841C19.4358 16.2235 19.5708 16.6729 19.5694 17.1322C19.5676 17.7449 19.3234 18.3321 18.8901 18.7653C18.4568 19.1986 17.8697 19.4429 17.2569 19.4447V19.4447Z" fill="white"/>
</g>
<defs>
<clipPath id="clip0_904_419">
<rect width="25" height="25" fill="white"/>
</clipPath>
</defs>
</svg>
