<svg width="24" height="31" viewBox="0 0 24 31" fill="none" xmlns="http://www.w3.org/2000/svg">
<path d="M20.6857 16.3026V13.5977H18.8869V16.7356C18.887 17.013 18.9818 17.279 19.1505 17.4751L21.5851 20.3066V21.9655H1.79876V20.3066L4.23337 17.4751C4.40205 17.279 4.49684 17.013 4.49689 16.7356V12.5517C4.49439 11.0819 4.82544 9.63735 5.45661 8.36396C6.08778 7.09056 6.99672 6.03343 8.09162 5.29934C9.18651 4.56524 10.4286 4.18018 11.6924 4.18305C12.9562 4.18591 14.197 4.5766 15.2894 5.31565V2.97789C14.4333 2.53704 13.5227 2.25605 12.5913 2.1453V0H10.7925V2.14425C8.57519 2.40672 6.52028 3.61606 5.02516 5.53842C3.53004 7.46079 2.70092 9.95961 2.69814 12.5517V16.3026L0.263518 19.134C0.09484 19.3302 5.09385e-05 19.5962 0 19.8735V23.0115C0 23.2889 0.0947556 23.5549 0.263422 23.7511C0.432088 23.9472 0.660849 24.0574 0.899379 24.0574H7.19503V25.1034C7.19503 26.4905 7.66881 27.8207 8.51214 28.8015C9.35547 29.7823 10.4993 30.3333 11.6919 30.3333C12.8846 30.3333 14.0284 29.7823 14.8717 28.8015C15.715 27.8207 16.1888 26.4905 16.1888 25.1034V24.0574H22.4845C22.723 24.0574 22.9518 23.9472 23.1204 23.7511C23.2891 23.5549 23.3838 23.2889 23.3838 23.0115V19.8735C23.3838 19.5962 23.289 19.3302 23.1203 19.134L20.6857 16.3026ZM14.3901 25.1034C14.3901 25.9357 14.1058 26.7338 13.5998 27.3223C13.0938 27.9108 12.4075 28.2414 11.6919 28.2414C10.9763 28.2414 10.29 27.9108 9.78405 27.3223C9.27805 26.7338 8.99378 25.9357 8.99378 25.1034V24.0574H14.3901V25.1034Z" fill="white"/>
</svg>
