<svg width="34" height="34" viewBox="0 0 34 34" fill="none" xmlns="http://www.w3.org/2000/svg">
<path d="M19.8334 29.7499H14.1667M25.5 11.3333C25.5 9.07891 24.6045 6.9169 23.0105 5.32284C21.4164 3.72879 19.2544 2.83325 17 2.83325C14.7457 2.83325 12.5837 3.72879 10.9896 5.32284C9.39558 6.9169 8.50005 9.07891 8.50005 11.3333C8.50005 15.711 7.39571 18.7084 6.16207 20.6909C5.12148 22.3632 4.60118 23.1994 4.62026 23.4327C4.64138 23.6909 4.6961 23.7894 4.90423 23.9438C5.0922 24.0833 5.93955 24.0833 7.63426 24.0833H26.3658C28.0605 24.0833 28.9079 24.0833 29.0959 23.9438C29.304 23.7894 29.3587 23.6909 29.3798 23.4327C29.3989 23.1994 28.8786 22.3632 27.838 20.6909C26.6044 18.7084 25.5 15.711 25.5 11.3333Z" stroke="black" stroke-width="3" stroke-linecap="round" stroke-linejoin="round"/>
</svg>
