<svg width="30" height="30" viewBox="0 0 30 30" fill="none" xmlns="http://www.w3.org/2000/svg">
<path d="M3.75 9.75C3.75 7.6498 3.75 6.5997 4.15873 5.79754C4.51825 5.09193 5.09193 4.51825 5.79754 4.15873C6.5997 3.75 7.6498 3.75 9.75 3.75H20.25C22.3502 3.75 23.4003 3.75 24.2025 4.15873C24.9081 4.51825 25.4817 5.09193 25.8413 5.79754C26.25 6.5997 26.25 7.6498 26.25 9.75V16.5C26.25 18.6002 26.25 19.6503 25.8413 20.4525C25.4817 21.1581 24.9081 21.7317 24.2025 22.0913C23.4003 22.5 22.3502 22.5 20.25 22.5H12.1047C11.3246 22.5 10.9346 22.5 10.5615 22.5766C10.2305 22.6445 9.91025 22.7568 9.60936 22.9106C9.27021 23.0838 8.96565 23.3275 8.35652 23.8148L5.3747 26.2002C4.85459 26.6163 4.59453 26.8244 4.37567 26.8246C4.18534 26.8248 4.00528 26.7383 3.88654 26.5895C3.75 26.4185 3.75 26.0854 3.75 25.4194V9.75Z" stroke="#EFF6FC" stroke-width="2" stroke-linecap="round" stroke-linejoin="round"/>
</svg>
