<svg width="24" height="24" viewBox="0 0 24 24" fill="none" xmlns="http://www.w3.org/2000/svg">
<path d="M21 1.56936C21.3978 1.56936 21.7794 1.7347 22.0607 2.02901C22.342 2.32332 22.5 2.72249 22.5 3.13871V15.6936C22.5 16.1098 22.342 16.509 22.0607 16.8033C21.7794 17.0976 21.3978 17.2629 21 17.2629H6.621C5.82542 17.2631 5.06248 17.5939 4.5 18.1826L1.5 21.3213V3.13871C1.5 2.72249 1.65804 2.32332 1.93934 2.02901C2.22064 1.7347 2.60218 1.56936 3 1.56936H21ZM3 0C2.20435 0 1.44129 0.330685 0.87868 0.919308C0.316071 1.50793 0 2.30627 0 3.13871L0 23.2155C3.15223e-05 23.3708 0.0440889 23.5225 0.126596 23.6516C0.209103 23.7806 0.32635 23.8812 0.463499 23.9405C0.600648 23.9998 0.751531 24.0152 0.897054 23.9848C1.04258 23.9543 1.1762 23.8794 1.281 23.7695L5.5605 19.2921C5.84174 18.9978 6.22321 18.8324 6.621 18.8323H21C21.7956 18.8323 22.5587 18.5016 23.1213 17.913C23.6839 17.3243 24 16.526 24 15.6936V3.13871C24 2.30627 23.6839 1.50793 23.1213 0.919308C22.5587 0.330685 21.7956 0 21 0L3 0Z" fill="#434343"/>
<path d="M7.5 9.41604C7.5 9.83226 7.34196 10.2314 7.06066 10.5257C6.77936 10.82 6.39782 10.9854 6 10.9854C5.60218 10.9854 5.22064 10.82 4.93934 10.5257C4.65804 10.2314 4.5 9.83226 4.5 9.41604C4.5 8.99982 4.65804 8.60065 4.93934 8.30633C5.22064 8.01202 5.60218 7.84668 6 7.84668C6.39782 7.84668 6.77936 8.01202 7.06066 8.30633C7.34196 8.60065 7.5 8.99982 7.5 9.41604V9.41604ZM13.5 9.41604C13.5 9.83226 13.342 10.2314 13.0607 10.5257C12.7794 10.82 12.3978 10.9854 12 10.9854C11.6022 10.9854 11.2206 10.82 10.9393 10.5257C10.658 10.2314 10.5 9.83226 10.5 9.41604C10.5 8.99982 10.658 8.60065 10.9393 8.30633C11.2206 8.01202 11.6022 7.84668 12 7.84668C12.3978 7.84668 12.7794 8.01202 13.0607 8.30633C13.342 8.60065 13.5 8.99982 13.5 9.41604ZM19.5 9.41604C19.5 9.83226 19.342 10.2314 19.0607 10.5257C18.7794 10.82 18.3978 10.9854 18 10.9854C17.6022 10.9854 17.2206 10.82 16.9393 10.5257C16.658 10.2314 16.5 9.83226 16.5 9.41604C16.5 8.99982 16.658 8.60065 16.9393 8.30633C17.2206 8.01202 17.6022 7.84668 18 7.84668C18.3978 7.84668 18.7794 8.01202 19.0607 8.30633C19.342 8.60065 19.5 8.99982 19.5 9.41604Z" fill="#434343"/>
</svg>
