<svg width="30" height="30" viewBox="0 0 30 30" fill="none" xmlns="http://www.w3.org/2000/svg">
<path d="M20 21.25L26.25 15M26.25 15L20 8.75M26.25 15H11.25M15 21.25C15 22.4125 15 22.9937 14.8722 23.4706C14.5255 24.7647 13.5147 25.7755 12.2206 26.1222C11.7437 26.25 11.1625 26.25 10 26.25H9.375C7.62772 26.25 6.75408 26.25 6.06494 25.9645C5.14608 25.5839 4.41605 24.8539 4.03545 23.9351C3.75 23.2459 3.75 22.3723 3.75 20.625V9.375C3.75 7.62772 3.75 6.75408 4.03545 6.06494C4.41606 5.14608 5.14608 4.41605 6.06494 4.03545C6.75408 3.75 7.62772 3.75 9.375 3.75H10C11.1625 3.75 11.7437 3.75 12.2206 3.87778C13.5147 4.22453 14.5255 5.23533 14.8722 6.52943C15 7.0063 15 7.58754 15 8.75" stroke="#EFF6FC" stroke-width="2" stroke-linecap="round" stroke-linejoin="round"/>
</svg>
