<svg width="30" height="30" viewBox="0 0 30 30" fill="none" xmlns="http://www.w3.org/2000/svg">
<path d="M12.5 18.75L8.65593 22.6421C8.11973 23.185 7.85163 23.4565 7.62119 23.4756C7.42127 23.4922 7.22552 23.4119 7.09495 23.2596C6.94444 23.084 6.94444 22.7025 6.94444 21.9394V19.9895C6.94444 19.3049 6.38384 18.8096 5.7065 18.7104V18.7104C4.06718 18.4703 2.77972 17.1828 2.53959 15.5435C2.5 15.2732 2.5 14.9506 2.5 14.3056V8.5C2.5 6.3998 2.5 5.3497 2.90873 4.54754C3.26825 3.84193 3.84193 3.26825 4.54754 2.90873C5.3497 2.5 6.3998 2.5 8.5 2.5H17.75C19.8502 2.5 20.9003 2.5 21.7025 2.90873C22.4081 3.26825 22.9817 3.84193 23.3413 4.54754C23.75 5.3497 23.75 6.3998 23.75 8.5V13.75M23.75 27.5L21.0295 25.6086C20.6471 25.3427 20.4559 25.2098 20.2478 25.1155C20.0631 25.0319 19.8689 24.971 19.6695 24.9343C19.4448 24.8929 19.2119 24.8929 18.7461 24.8929H16.5C15.0999 24.8929 14.3998 24.8929 13.865 24.6204C13.3946 24.3807 13.0122 23.9982 12.7725 23.5278C12.5 22.9931 12.5 22.293 12.5 20.8929V17.75C12.5 16.3499 12.5 15.6498 12.7725 15.115C13.0122 14.6446 13.3946 14.2622 13.865 14.0225C14.3998 13.75 15.0999 13.75 16.5 13.75H23.5C24.9001 13.75 25.6002 13.75 26.135 14.0225C26.6054 14.2622 26.9878 14.6446 27.2275 15.115C27.5 15.6498 27.5 16.3499 27.5 17.75V21.1429C27.5 22.3077 27.5 22.8901 27.3097 23.3496C27.056 23.9621 26.5693 24.4488 25.9567 24.7026C25.4973 24.8929 24.9149 24.8929 23.75 24.8929V27.5Z" stroke="#EFF6FC" stroke-width="2" stroke-linecap="round" stroke-linejoin="round"/>
</svg>
