<svg width="24" height="24" viewBox="0 0 24 24" fill="none" xmlns="http://www.w3.org/2000/svg">
<path d="M7.0701 3C5.6541 3 4.4231 3.97 4.0921 5.346L2.1001 13.619C1.97441 14.141 1.96877 14.6847 2.08361 15.2092C2.19844 15.7337 2.43075 16.2254 2.76306 16.6471C3.09537 17.0689 3.51902 17.4097 4.00211 17.6441C4.48521 17.8784 5.01517 18.0001 5.5521 18H18.4441C18.9808 17.9998 19.5104 17.8778 19.9931 17.6434C20.4759 17.409 20.8992 17.0682 21.2313 16.6466C21.5633 16.2251 21.7955 15.7337 21.9103 15.2094C22.0251 14.6852 22.0196 14.1418 21.8941 13.62L19.9041 5.346C19.7431 4.67726 19.3617 4.08218 18.8213 3.65661C18.2809 3.23104 17.6129 2.99975 16.9251 3H7.0691H7.0701ZM5.5501 5.697C5.63228 5.3558 5.8269 5.05219 6.10263 4.83505C6.37836 4.61792 6.71914 4.4999 7.0701 4.5H16.9261C17.6481 4.5 18.2761 4.995 18.4451 5.697L20.4371 13.97C20.5097 14.2715 20.513 14.5855 20.4466 14.8885C20.3803 15.1914 20.2461 15.4754 20.0541 15.719C19.8622 15.9625 19.6174 16.1594 19.3384 16.2946C19.0593 16.4299 18.7532 16.5001 18.4431 16.5H5.5531C5.24306 16.5 4.93706 16.4297 4.65813 16.2943C4.3792 16.159 4.1346 15.9621 3.94275 15.7186C3.7509 15.475 3.61678 15.1911 3.5505 14.8882C3.48422 14.5854 3.4875 14.2714 3.5601 13.97L5.5501 5.697V5.697ZM6.7481 19C6.54919 19 6.35842 19.079 6.21777 19.2197C6.07711 19.3603 5.9981 19.5511 5.9981 19.75C5.9981 19.9489 6.07711 20.1397 6.21777 20.2803C6.35842 20.421 6.54919 20.5 6.7481 20.5H17.2481C17.447 20.5 17.6378 20.421 17.7784 20.2803C17.9191 20.1397 17.9981 19.9489 17.9981 19.75C17.9981 19.5511 17.9191 19.3603 17.7784 19.2197C17.6378 19.079 17.447 19 17.2481 19H6.7481V19Z" fill="black"/>
</svg>
