<svg width="40" height="40" viewBox="0 0 40 40" fill="none" xmlns="http://www.w3.org/2000/svg">
<g clip-path="url(#clip0_586_1060)">
<path d="M20 37.1274C24.4203 37.1274 28.6595 35.6142 31.7851 32.9206C34.9107 30.2271 36.6667 26.5738 36.6667 22.7646C36.6667 18.9553 34.9107 15.3021 31.7851 12.6085C28.6595 9.91494 24.4203 8.40171 20 8.40171C15.5797 8.40171 11.3405 9.91494 8.21489 12.6085C5.08928 15.3021 3.33333 18.9553 3.33333 22.7646C3.33333 26.5738 5.08928 30.2271 8.21489 32.9206C11.3405 35.6142 15.5797 37.1274 20 37.1274V37.1274ZM20 40C14.6957 40 9.60859 38.1841 5.85786 34.9518C2.10714 31.7196 0 27.3357 0 22.7646C0 18.1934 2.10714 13.8096 5.85786 10.5773C9.60859 7.34501 14.6957 5.52914 20 5.52914C25.3043 5.52914 30.3914 7.34501 34.1421 10.5773C37.8929 13.8096 40 18.1934 40 22.7646C40 27.3357 37.8929 31.7196 34.1421 34.9518C30.3914 38.1841 25.3043 40 20 40Z" fill="black"/>
<path d="M19.9518 11.7495C20.3676 11.7495 20.7665 11.8951 21.0605 12.1543C21.3546 12.4135 21.5198 12.7651 21.5198 13.1317L21.4947 22.8078C21.4947 23.1744 21.3295 23.526 21.0354 23.7852C20.7414 24.0444 20.3425 24.1901 19.9267 24.1901C19.5108 24.1901 19.112 24.0444 18.8179 23.7852C18.5239 23.526 18.3587 23.1744 18.3587 22.8078L18.3838 13.1317C18.3838 12.7651 18.549 12.4135 18.843 12.1543C19.1371 11.8951 19.5359 11.7495 19.9518 11.7495V11.7495Z" fill="black"/>
<path d="M16.5349 22.731C16.5349 23.4846 16.8936 24.2073 17.532 24.7401C18.1704 25.273 19.0363 25.5724 19.9392 25.5724C20.8421 25.5724 21.7079 25.273 22.3464 24.7401C22.9848 24.2073 23.3435 23.4846 23.3435 22.731C23.3435 21.9774 22.9848 21.2547 22.3464 20.7218C21.7079 20.189 20.8421 19.8896 19.9392 19.8896C19.0363 19.8896 18.1704 20.189 17.532 20.7218C16.8936 21.2547 16.5349 21.9774 16.5349 22.731ZM21.6413 2.84137V8.52412H18.2371V2.84137H13.1307C12.6793 2.84137 12.2463 2.69169 11.9271 2.42526C11.6079 2.15883 11.4286 1.79748 11.4286 1.42069C11.4286 1.0439 11.6079 0.68254 11.9271 0.416109C12.2463 0.149679 12.6793 0 13.1307 0H26.7477C27.1991 0 27.6321 0.149679 27.9513 0.416109C28.2705 0.68254 28.4498 1.0439 28.4498 1.42069C28.4498 1.79748 28.2705 2.15883 27.9513 2.42526C27.6321 2.69169 27.1991 2.84137 26.7477 2.84137H21.6413Z" fill="black"/>
</g>
<defs>
<clipPath id="clip0_586_1060">
<rect width="40" height="40" fill="white"/>
</clipPath>
</defs>
</svg>
