<svg width="24" height="24" viewBox="0 0 24 24" fill="none" xmlns="http://www.w3.org/2000/svg">
<path d="M15.4031 17.5144C16.0973 16.5934 16.5739 15.4116 16.7721 14.12C16.9702 12.8285 16.881 11.4859 16.5157 10.2637C16.1504 9.04156 15.5256 7.99539 14.7213 7.25889C13.9169 6.52239 12.9695 6.12901 12 6.12901C11.0305 6.12901 10.0831 6.52239 9.27875 7.25889C8.47439 7.99539 7.84965 9.04156 7.48434 10.2637C7.11904 11.4859 7.02977 12.8285 7.22794 14.12C7.42611 15.4116 7.90273 16.5934 8.59688 17.5144C7.28898 18.474 6.23612 19.9694 5.5875 21.7888C5.45572 22.1542 5.43602 22.576 5.53271 22.9612C5.62941 23.3465 5.8346 23.6637 6.10313 23.843C6.37166 24.0224 6.68154 24.0492 6.9646 23.9176C7.24767 23.786 7.48072 23.5067 7.6125 23.1413C8.01169 22.0195 8.63497 21.0735 9.41095 20.4115C10.1869 19.7496 11.0842 19.3985 12 19.3985C12.9158 19.3985 13.8131 19.7496 14.5891 20.4115C15.365 21.0735 15.9883 22.0195 16.3875 23.1413C16.4805 23.3985 16.6248 23.615 16.8038 23.7661C16.9828 23.9172 17.1894 23.9969 17.4 23.9961C17.5688 23.9943 17.7352 23.942 17.8875 23.843C18.0215 23.7557 18.1415 23.6332 18.2406 23.4825C18.3396 23.3317 18.4158 23.1558 18.4646 22.9648C18.5134 22.7738 18.5339 22.5716 18.525 22.3697C18.516 22.1679 18.4778 21.9704 18.4125 21.7888C17.7639 19.9694 16.711 18.474 15.4031 17.5144ZM9.375 12.768C9.375 12.0614 9.52896 11.3707 9.81739 10.7832C10.1058 10.1957 10.5158 9.73779 10.9955 9.46739C11.4751 9.19699 12.0029 9.12625 12.5121 9.26409C13.0213 9.40194 13.489 9.7422 13.8562 10.2418C14.2233 10.7415 14.4733 11.378 14.5746 12.0711C14.6758 12.7641 14.6239 13.4824 14.4252 14.1352C14.2265 14.788 13.8901 15.346 13.4584 15.7385C13.0267 16.1311 12.5192 16.3406 12 16.3406C11.3046 16.3372 10.6383 15.9598 10.1466 15.2905C9.65483 14.6212 9.37747 13.7145 9.375 12.768V12.768ZM23.55 13.9929C23.3113 14.2366 23.0113 14.3412 22.7159 14.2837C22.4205 14.2263 22.154 14.0115 21.975 13.6867C21.6226 13.0408 21.1791 12.4971 20.6704 12.0874C20.1617 11.6777 19.5981 11.4103 19.0125 11.3007C18.7903 11.2554 18.5831 11.1207 18.4177 10.9137C18.2523 10.7068 18.1362 10.4372 18.0844 10.1396C18.0646 10.0823 18.0489 10.0224 18.0375 9.961C17.9995 9.76661 17.9903 9.56388 18.0103 9.36459C18.0304 9.1653 18.0794 8.97342 18.1544 8.80011C18.2294 8.62679 18.329 8.47548 18.4473 8.35498C18.5657 8.23448 18.7004 8.14718 18.8437 8.09816C19.1483 7.98956 19.4279 7.77835 19.6566 7.48399C19.8854 7.18964 20.0561 6.82162 20.1528 6.41388C20.2496 6.00614 20.2693 5.5718 20.2103 5.15093C20.1512 4.73006 20.0152 4.3362 19.8149 4.00568C19.6145 3.67516 19.3562 3.41863 19.0639 3.25974C18.7715 3.10084 18.4544 3.04471 18.1419 3.0965C17.8294 3.1483 17.5315 3.30637 17.2756 3.55612C17.0198 3.80588 16.8143 4.13928 16.6781 4.52558C16.6223 4.72232 16.5372 4.90124 16.4282 5.05111C16.3191 5.20099 16.1885 5.31859 16.0445 5.39655C15.9005 5.47451 15.7463 5.51113 15.5914 5.50414C15.4365 5.49714 15.2844 5.44667 15.1445 5.3559C15.0046 5.26512 14.88 5.13599 14.7785 4.9766C14.677 4.81722 14.6008 4.63102 14.5547 4.42967C14.5086 4.22833 14.4935 4.01618 14.5104 3.80654C14.5274 3.5969 14.576 3.39428 14.6531 3.21138C14.9042 2.48985 15.2654 1.84949 15.7127 1.33302C16.16 0.816557 16.6831 0.435873 17.2471 0.216371C17.8111 -0.00313098 18.403 -0.0564022 18.9833 0.0601129C19.5636 0.176628 20.119 0.460249 20.6124 0.89205C21.1057 1.32385 21.5258 1.8939 21.8445 2.56416C22.1631 3.23442 22.3731 3.98947 22.4604 4.77892C22.5476 5.56838 22.5102 6.37409 22.3505 7.14228C22.1908 7.91047 21.9126 8.62348 21.5344 9.23373C22.4155 9.86674 23.1811 10.7605 23.775 11.8494C23.8636 12.0102 23.9281 12.1933 23.9648 12.388C24.0015 12.5828 24.0096 12.7855 23.9887 12.9846C23.9678 13.1836 23.9183 13.3751 23.843 13.5481C23.7678 13.7211 23.6682 13.8723 23.55 13.9929V13.9929ZM4.9875 11.3007C4.40192 11.4103 3.83829 11.6777 3.3296 12.0874C2.82091 12.4971 2.37739 13.0408 2.025 13.6867C1.91923 13.8754 1.78314 14.0287 1.62715 14.1348C1.47116 14.241 1.2994 14.2972 1.125 14.2991C0.881805 14.2973 0.64536 14.1901 0.450005 13.9929C0.21131 13.7493 0.0535071 13.3865 0.0113114 12.9846C-0.0308843 12.5826 0.0459835 12.1742 0.225005 11.8494C0.818856 10.7605 1.5845 9.86674 2.46563 9.23373C2.08742 8.62348 1.8092 7.91047 1.64952 7.14228C1.48984 6.37409 1.45238 5.56838 1.53964 4.77892C1.6269 3.98947 1.83687 3.23442 2.15554 2.56416C2.47421 1.8939 2.89425 1.32385 3.38764 0.89205C3.88102 0.460249 4.4364 0.176628 5.01671 0.0601129C5.59702 -0.0564022 6.18892 -0.00313098 6.7529 0.216371C7.31688 0.435873 7.83998 0.816557 8.28729 1.33302C8.7346 1.84949 9.09583 2.48985 9.34688 3.21138C9.42405 3.39428 9.47263 3.5969 9.48957 3.80654C9.5065 4.01618 9.49143 4.22833 9.4453 4.42967C9.39917 4.63102 9.32297 4.81722 9.22148 4.9766C9.11999 5.13599 8.9954 5.26512 8.85553 5.3559C8.71565 5.44667 8.5635 5.49714 8.40862 5.50414C8.25374 5.51113 8.09947 5.47451 7.95547 5.39655C7.81148 5.31859 7.68088 5.20099 7.57185 5.05111C7.46282 4.90124 7.37772 4.72232 7.32188 4.52558C7.18567 4.13928 6.98018 3.80588 6.72436 3.55612C6.46854 3.30637 6.17064 3.1483 5.85812 3.0965C5.54559 3.04471 5.22852 3.10084 4.93614 3.25974C4.64375 3.41863 4.38548 3.67516 4.18512 4.00568C3.98477 4.3362 3.84879 4.73006 3.78973 5.15093C3.73068 5.5718 3.75043 6.00614 3.84719 6.41388C3.94395 6.82162 4.11458 7.18964 4.34336 7.48399C4.57214 7.77835 4.8517 7.98956 5.15625 8.09816C5.2996 8.14718 5.43435 8.23448 5.55269 8.35498C5.67104 8.47548 5.77061 8.62679 5.84562 8.80011C5.92063 8.97342 5.96959 9.1653 5.98966 9.36459C6.00972 9.56388 6.00049 9.76661 5.9625 9.961C5.95109 10.0224 5.9354 10.0823 5.91563 10.1396C5.86381 10.4372 5.74771 10.7068 5.58229 10.9137C5.41687 11.1207 5.20971 11.2554 4.9875 11.3007V11.3007Z" fill="#434343"/>
</svg>
