<svg width="370" height="50" viewBox="0 0 370 50" fill="none" xmlns="http://www.w3.org/2000/svg">
<path fill-rule="evenodd" clip-rule="evenodd" d="M160.234 0.0546726C158.195 0.595662 158.531 3.52535 160.65 3.67659C160.971 3.69966 161.115 3.76171 161.167 3.89997C161.187 3.95232 161.199 5.70618 161.199 8.67483C161.2 12.3338 161.209 13.3842 161.239 13.4454L161.279 13.5242L162.319 13.5263C163.262 13.5282 163.362 13.5234 163.388 13.4739C163.405 13.4423 163.417 11.4525 163.417 8.73029C163.417 3.16818 163.349 3.75842 164.001 3.67213C164.828 3.56258 165.375 3.14704 165.618 2.44278C166.223 0.687767 164.149 -0.745372 162.708 0.432008C162.338 0.734109 162.252 0.732752 161.854 0.418241C161.39 0.051764 160.77 -0.0872646 160.234 0.0546726ZM188.12 3.66883C186.924 3.94379 186.358 5.21211 186.915 6.36932C187.068 6.6881 187.078 6.81065 186.963 6.94793C186.897 7.02763 179.691 11.7344 172.241 16.5644C171.481 17.0573 170.824 17.4949 170.781 17.537C170.685 17.6314 170.697 17.6663 170.962 18.0283C171.064 18.1691 171.195 18.3522 171.252 18.4351C171.392 18.6385 171.433 18.6323 171.872 18.3409C173.64 17.1676 175.41 16.3526 176.915 16.0183C177.254 15.9431 176.947 16.1355 182.735 12.3704C185.66 10.4679 188.112 8.88987 188.184 8.86369C188.377 8.79408 188.505 8.86408 188.694 9.14272C189.244 9.95033 190.208 10.234 191.036 9.83244C192.494 9.12624 192.396 7.00901 190.88 6.44902C190.305 6.23669 190.323 6.26345 190.329 5.63618C190.34 4.30038 189.321 3.39272 188.12 3.66883ZM136.002 3.76947C135.16 4.058 134.762 4.67073 134.759 5.6862L134.757 6.21401L134.671 6.28866C134.624 6.32977 134.486 6.39589 134.366 6.43545C132.973 6.89267 132.549 8.49334 133.551 9.50803C134.376 10.344 135.656 10.2129 136.375 9.21854C136.693 8.77876 136.65 8.76461 138.31 9.84349C139.652 10.7157 147.552 15.8374 147.691 15.9255C147.732 15.9512 147.992 16.0304 148.269 16.1013C149.883 16.5134 151.515 17.2977 153.136 18.4398C153.413 18.6351 153.426 18.6298 153.72 18.2044C153.852 18.0144 153.997 17.8088 154.043 17.7476C154.164 17.5864 154.152 17.5079 153.99 17.3962C153.846 17.2973 149.672 14.5891 142.505 9.94412C140.153 8.42024 138.182 7.12361 138.125 7.06311C137.975 6.90527 137.981 6.75616 138.149 6.44999C138.969 4.9579 137.583 3.22809 136.002 3.76947ZM161.441 14.6313C157.287 15.0851 153.84 18.3677 152.988 22.6818C152.813 23.5666 152.729 24.623 152.778 25.3144C152.909 27.1501 154.404 28.6013 156.931 29.3441C157.709 29.5729 157.701 29.5485 157.388 30.5921C157.214 31.1732 157.181 31.3603 157.246 31.4009C157.295 31.4309 158.364 31.7068 158.432 31.7068C158.535 31.7068 158.586 31.5983 158.742 31.0456C158.963 30.2642 159.005 30.2297 159.64 30.3084C160.494 30.4141 160.52 30.4504 160.395 31.3512C160.295 32.0768 160.259 32.0291 160.97 32.1237C161.646 32.2135 161.594 32.2761 161.633 31.3351C161.665 30.5822 161.686 30.5642 162.51 30.5725C163.43 30.582 163.442 30.5968 163.389 31.6584C163.351 32.4241 163.341 32.4001 163.699 32.3762C164.452 32.3264 164.838 32.2775 164.904 32.2236L164.971 32.1689L164.821 31.5542C164.568 30.518 164.583 30.4864 165.362 30.4145C166.315 30.3265 166.297 30.3154 166.588 31.1635C166.836 31.8864 166.775 31.856 167.474 31.6087C168.133 31.3757 168.103 31.4579 167.822 30.6505C167.561 29.9014 167.532 29.7616 167.607 29.6158C167.661 29.5121 167.704 29.4868 168.153 29.3017C171.377 27.9699 172.565 25.2074 171.506 21.5072C170.293 17.2706 165.742 14.1617 161.441 14.6313ZM145.816 16.9576C141.869 17.2737 138.472 19.5505 137.528 22.5125C137.191 23.5711 137.15 24.6924 137.364 26.9556C137.425 27.5928 137.448 27.6267 138.003 27.9139C138.285 28.0601 138.32 28.0461 138.374 27.7696C138.455 27.3491 138.57 27.1823 138.781 27.1823C138.895 27.1823 138.925 27.1439 138.967 26.949C139.067 26.4765 139.453 26.6801 140.205 27.6025C140.496 27.9603 140.511 27.9602 141.137 27.5928C142.629 26.7181 143.898 25.2136 144.6 23.4873C145.047 22.3894 145.362 22.0313 145.782 22.1447C146.724 22.3993 146.901 26.2743 146.011 27.1685C145.42 27.7621 141.732 29.0595 140.608 29.0688C140.157 29.0725 139.951 28.9251 139.515 28.2878C139.215 27.848 139.213 27.8491 139.232 28.4832C139.252 29.1834 139.149 29.38 138.761 29.38C138.459 29.38 138.458 29.3895 138.726 30.0627C139.384 31.7204 139.844 33.4578 139.962 34.7346C140.013 35.2815 140.039 35.3098 140.407 35.2082C140.521 35.1767 140.528 35.0932 140.463 34.5464C140.34 33.5032 140.357 33.4586 140.962 33.2916C141.62 33.1097 141.666 33.1569 141.828 34.1702C141.972 35.0767 141.945 35.0278 142.276 34.9702C142.712 34.8942 142.701 34.9318 142.537 34.086C142.346 33.1043 142.358 33.0743 143.019 32.8608C143.694 32.643 143.698 32.6465 144.017 33.7653C144.281 34.69 144.227 34.6387 144.743 34.4537C145.318 34.2476 145.302 34.3404 144.911 33.4392C144.459 32.3958 144.464 32.3619 145.109 32.1226C145.801 31.8658 145.819 31.8777 146.297 32.8988C146.744 33.8549 146.66 33.7965 147.244 33.5594C147.835 33.3197 147.821 33.399 147.416 32.5631C147.061 31.8307 147.028 31.6855 147.183 31.5304C147.25 31.4623 149.01 30.5809 152.286 28.974C153.086 28.5815 153.064 28.6143 152.758 28.2614C151.238 26.5097 151.152 23.6948 152.511 20.2096C152.811 19.4411 152.842 19.5354 152.127 19.0603C149.825 17.5331 147.657 16.8104 145.816 16.9576ZM177.867 16.9574C176.395 17.1114 174.497 17.9029 172.618 19.1456C172.018 19.5427 172.04 19.4828 172.268 20.1159C173.52 23.5823 173.338 26.4251 171.746 28.2651C171.541 28.5022 171.523 28.5414 171.593 28.5999C171.617 28.6197 172.922 29.2598 174.494 30.0226C176.48 30.9857 177.39 31.4433 177.473 31.5207C177.663 31.6956 177.649 31.7666 177.272 32.5623C176.866 33.4206 176.846 33.3176 177.461 33.566C178.023 33.7931 177.962 33.8357 178.383 32.9187C178.871 31.8585 178.868 31.8602 179.587 32.1268C180.22 32.3615 180.226 32.3987 179.796 33.3905C179.39 34.3274 179.378 34.2596 179.996 34.474C180.452 34.6325 180.409 34.6763 180.664 33.782C180.989 32.6438 180.997 32.637 181.735 32.8844C182.326 33.0822 182.341 33.1221 182.16 34.0385C182.009 34.8093 182.008 34.8258 182.103 34.8859C182.21 34.9541 182.596 35.0125 182.671 34.9722C182.743 34.9332 182.742 34.9375 182.865 34.1438C183.017 33.1636 183.073 33.1086 183.732 33.2941C184.151 33.4116 184.209 33.4559 184.292 33.7176C184.302 33.7483 184.282 34.0304 184.247 34.3449C184.151 35.2215 184.146 35.1973 184.43 35.2409C184.653 35.2751 184.685 35.2217 184.726 34.7445C184.836 33.476 185.281 31.7813 185.94 30.1261C186.246 29.3598 186.249 29.4039 185.876 29.3691C185.501 29.3344 185.427 29.1762 185.452 28.4627C185.474 27.8255 185.484 27.8315 185.171 28.2949C184.755 28.911 184.522 29.075 184.072 29.0694C182.866 29.0543 179.056 27.6783 178.597 27.0923C177.775 26.0441 178.003 22.385 178.904 22.1435C179.317 22.0326 179.622 22.3619 180.037 23.3665C180.866 25.3724 182.286 27.0012 183.873 27.7669C184.216 27.9325 184.211 27.9343 184.546 27.5288C185.082 26.8792 185.254 26.7299 185.466 26.7299C185.6 26.7299 185.674 26.8042 185.729 26.9938C185.777 27.1619 185.782 27.1666 185.915 27.1848C186.124 27.2129 186.198 27.3099 186.285 27.6663C186.388 28.0911 186.408 28.0933 186.986 27.744C187.298 27.5552 187.333 27.3665 187.432 25.3565C187.548 23.0215 187.088 21.5991 185.724 20.0736C184.018 18.1641 180.327 16.7001 177.867 16.9574ZM126.402 22.0933C125.537 22.3136 124.961 23.0956 125.01 23.9829C125.036 24.4523 125.12 24.6525 125.53 25.2227C125.709 25.4701 125.691 25.5908 125.43 25.913C124.432 27.1449 125.28 28.9521 126.849 28.9389C127.813 28.9307 128.659 28.0828 128.665 27.1177C128.666 26.9287 128.727 26.7656 128.818 26.7053C128.898 26.653 129.154 26.6481 132.532 26.633C136.644 26.6148 136.277 26.6419 136.241 26.3582C136.231 26.2873 136.208 25.8801 136.188 25.4535C136.143 24.4636 136.147 24.482 136.022 24.4382C135.952 24.4138 134.865 24.4031 132.44 24.4031C130.306 24.4031 128.928 24.3911 128.878 24.3723C128.742 24.3203 128.691 24.1997 128.66 23.8606C128.549 22.62 127.514 21.8102 126.402 22.0933ZM198.233 22.0662C197.419 22.2031 196.818 22.86 196.717 23.7217C196.663 24.1809 196.658 24.2055 196.578 24.298L196.502 24.387L192.586 24.4031C190.431 24.412 188.644 24.4316 188.613 24.4465C188.541 24.4822 188.531 24.5617 188.507 25.2757C188.496 25.6045 188.476 26.0043 188.463 26.1643C188.433 26.5157 188.453 26.5847 188.59 26.6122C188.647 26.6237 190.431 26.633 192.555 26.6332C197.136 26.6332 196.648 26.5657 196.705 27.2077C196.847 28.8111 198.709 29.5227 199.822 28.3985C200.517 27.6965 200.543 26.7233 199.891 25.8626C199.635 25.5252 199.64 25.4515 199.943 25.0538C200.977 23.6975 199.884 21.7885 198.233 22.0662ZM154.808 22.3863C155.03 22.5013 155.3 22.7439 155.715 23.2019C157.082 24.7114 158.656 25.5997 160.535 25.9214C161.219 26.0385 161.286 26.0212 161.375 25.7038C161.692 24.5749 161.922 24.2548 162.21 24.5445C162.536 24.8718 162.194 26.6066 161.721 27.0235C161.369 27.3341 160.419 27.4544 158.322 27.4536C155.537 27.4526 155.212 27.3031 154.541 25.7098C153.655 23.6085 153.795 21.8628 154.808 22.3863ZM170.47 22.3475C171.375 22.7278 170.356 26.5455 169.181 27.1744C168.377 27.6046 164.009 27.5467 163.128 27.0937C162.57 26.8071 162.214 25.2218 162.633 24.8904C162.888 24.6889 163.081 24.8884 163.352 25.6315C163.497 26.0303 163.535 26.0427 164.235 25.9223C166.224 25.5805 167.563 24.799 169.284 22.9764C169.859 22.3667 170.15 22.213 170.47 22.3475ZM162.8 27.2963C163.384 27.4299 163.648 27.8059 163.514 28.3137C163.318 29.0568 161.734 29.1217 161.377 28.4014C161.029 27.6993 161.833 27.0751 162.8 27.2963ZM170.364 29.3054C170.339 29.3156 170.149 29.4347 169.941 29.57C169.733 29.7054 169.519 29.8409 169.464 29.8714C169.346 29.9367 169.338 29.9914 169.437 30.0812C169.492 30.1316 174.425 33.3399 175.592 34.0841C176.898 34.9177 186.863 41.409 186.94 41.4769C187.111 41.6283 187.111 41.7417 186.939 42.0906C186.428 43.1252 186.75 44.2318 187.693 44.6821C189.021 45.3159 190.38 44.3773 190.316 42.8702C190.292 42.307 190.325 42.2505 190.761 42.1012C191.596 41.8158 192.06 41.1835 192.06 40.3315C192.06 38.6042 189.897 37.8369 188.829 39.1849C188.55 39.5365 188.446 39.6245 188.311 39.6245C188.156 39.6243 188.344 39.7406 185.406 37.8315C184.071 36.964 182.906 36.2213 182.818 36.181C182.567 36.0666 181.413 35.8746 181.034 35.8841L180.728 35.8919L179.651 35.5011C179.059 35.2863 178.491 35.0924 178.39 35.0707C178.099 35.0079 175.762 34.0484 175.666 33.9524C175.514 33.7996 175.548 33.6562 175.918 32.8908C176.268 32.1664 176.282 32.1208 176.171 32.0489C176.036 31.9601 170.57 29.3183 170.489 29.3026C170.445 29.2939 170.389 29.2951 170.364 29.3054ZM153.095 29.7781C149.567 31.504 148.491 32.0468 148.46 32.1166C148.432 32.178 148.478 32.2928 148.757 32.8668C149.14 33.6532 149.17 33.7733 149.026 33.9332C148.919 34.0529 146.654 34.9939 146.251 35.0858C146.128 35.1141 145.545 35.3121 144.957 35.5256L143.887 35.9138L143.614 35.8936C143.311 35.8711 142.401 36.0131 142.21 36.1127C142.156 36.1406 140.961 36.9122 139.554 37.8272C136.616 39.7377 136.906 39.5599 136.729 39.5599C136.603 39.5599 136.579 39.5456 136.43 39.3771C135.738 38.5941 135.165 38.3597 134.391 38.5431C132.668 38.9513 132.526 41.4394 134.19 42.0479C134.29 42.0844 134.434 42.1375 134.511 42.1658C134.744 42.2521 134.78 42.345 134.755 42.808C134.69 43.996 135.454 44.8599 136.568 44.8599C138.018 44.8599 138.938 43.1442 138.084 42.0318C137.896 41.7859 137.88 41.6419 138.025 41.4885C138.112 41.3954 145.566 36.5315 153.869 31.1494C155.739 29.9371 155.629 30.0447 155.198 29.8469C155.061 29.7843 154.78 29.6391 154.574 29.5243C154.095 29.2571 154.195 29.24 153.095 29.7781ZM140.6 30.2846C141.352 30.5673 141.362 31.6663 140.614 31.8054C140.172 31.8876 139.789 31.6968 139.607 31.3035C139.31 30.6617 139.925 30.0306 140.6 30.2846ZM184.72 30.2956C185.511 30.7067 185.169 31.817 184.252 31.815C183.76 31.8141 183.536 31.5915 183.535 31.1023C183.533 30.4769 184.198 30.0242 184.72 30.2956ZM161.279 33.3029C161.215 33.3492 161.215 33.4169 161.199 39.5654C161.186 44.6563 161.175 45.7945 161.14 45.8564C161.082 45.9582 160.915 46.0231 160.71 46.0239C160.027 46.0262 159.353 46.439 159.063 47.032C158.177 48.8423 160.35 50.5467 161.894 49.2524C162.216 48.9827 162.351 48.9821 162.68 49.2493C164.256 50.5315 166.41 48.8498 165.521 47.032C165.238 46.4538 164.689 46.102 163.956 46.0276C163.789 46.0107 163.641 45.977 163.592 45.944C163.407 45.8222 163.417 46.1897 163.417 39.6557C163.417 35.4319 163.407 33.6222 163.382 33.5767C163.35 33.5152 163.328 33.5131 162.955 33.5344C162.566 33.5567 162.559 33.5557 162.338 33.4601C162.192 33.3967 162.01 33.3502 161.81 33.3252C161.642 33.3042 161.468 33.2802 161.423 33.2716C161.379 33.2631 161.313 33.2773 161.279 33.3029Z" fill="#EFF6FC"/>
<path d="M26.1436 11.9062C28.3206 11.9062 30.1514 12.0423 31.6357 12.3145C33.1325 12.5742 34.3633 12.9762 35.3281 13.5205C36.293 14.0524 37.0352 14.7266 37.5547 15.543C38.0742 16.3594 38.4515 17.318 38.6865 18.4189C38.9339 19.5199 39.0762 20.763 39.1133 22.1484C39.1628 23.5339 39.1875 25.0677 39.1875 26.75C39.1875 28.4323 39.1628 29.9661 39.1133 31.3516C39.0762 32.737 38.9339 33.9801 38.6865 35.0811C38.4515 36.182 38.0742 37.1406 37.5547 37.957C37.0352 38.7734 36.293 39.4538 35.3281 39.998C34.3633 40.5299 33.1325 40.9258 31.6357 41.1855C30.1514 41.4577 28.3206 41.5938 26.1436 41.5938H15.4189C13.2419 41.5938 11.4049 41.4577 9.9082 41.1855C8.42383 40.9258 7.19922 40.5299 6.23438 39.998C5.26953 39.4538 4.52116 38.7734 3.98926 37.957C3.46973 37.1406 3.08626 36.182 2.83887 35.0811C2.60384 33.9801 2.46777 32.737 2.43066 31.3516C2.39355 29.9661 2.375 28.4323 2.375 26.75C2.375 25.0677 2.39355 23.5339 2.43066 22.1484C2.46777 20.763 2.60384 19.5199 2.83887 18.4189C3.08626 17.318 3.46973 16.3594 3.98926 15.543C4.52116 14.7266 5.26953 14.0524 6.23438 13.5205C7.19922 12.9762 8.42383 12.5742 9.9082 12.3145C11.4049 12.0423 13.2419 11.9062 15.4189 11.9062H26.1436ZM26.1436 38.625C27.7145 38.625 29.0381 38.5817 30.1143 38.4951C31.2028 38.3962 32.0996 38.2044 32.8047 37.9199C33.5098 37.6354 34.054 37.2272 34.4375 36.6953C34.821 36.1634 35.0993 35.4583 35.2725 34.5801C35.4456 33.7018 35.5446 32.6257 35.5693 31.3516C35.6064 30.0651 35.625 28.5312 35.625 26.75C35.625 24.9688 35.6064 23.4411 35.5693 22.167C35.5446 20.8805 35.4456 19.7982 35.2725 18.9199C35.0993 18.0417 34.821 17.3366 34.4375 16.8047C34.054 16.2728 33.5098 15.8646 32.8047 15.5801C32.112 15.2956 31.2214 15.11 30.1328 15.0234C29.0566 14.9245 27.7269 14.875 26.1436 14.875H15.4189C13.8356 14.875 12.4997 14.9245 11.4111 15.0234C10.335 15.11 9.44434 15.2956 8.73926 15.5801C8.03418 15.8646 7.48991 16.2728 7.10645 16.8047C6.72298 17.3366 6.44466 18.0417 6.27148 18.9199C6.09831 19.7982 5.99935 20.8805 5.97461 22.167C5.94987 23.4411 5.9375 24.9688 5.9375 26.75C5.9375 28.5312 5.94987 30.0651 5.97461 31.3516C6.01172 32.6257 6.11686 33.7018 6.29004 34.5801C6.46322 35.4583 6.73535 36.1634 7.10645 36.6953C7.48991 37.2272 8.03418 37.6354 8.73926 37.9199C9.44434 38.2044 10.335 38.3962 11.4111 38.4951C12.4997 38.5817 13.8356 38.625 15.4189 38.625H26.1436ZM48.6875 41H45.125V12.5H51.3779L77.5029 37.4375V12.5H81.0654V41H76.3154L48.6875 15.4688V41ZM88.209 41V12.5H116.709V15.4688H91.7715V24.9688H115.521V27.9375H91.7715V38.0312H116.709V41H88.209Z" fill="white"/>
<path d="M210.925 12.5H232.337C234.106 12.5 235.596 12.5804 236.808 12.7412C238.033 12.8896 239.041 13.1185 239.833 13.4277C240.625 13.737 241.231 14.1204 241.651 14.5781C242.084 15.0358 242.4 15.5739 242.598 16.1924C242.795 16.8109 242.907 17.5036 242.932 18.2705C242.969 19.0374 242.987 19.8848 242.987 20.8125C242.987 21.7773 242.962 22.668 242.913 23.4844C242.876 24.3008 242.734 25.043 242.486 25.7109C242.251 26.3665 241.868 26.9479 241.336 27.4551C240.816 27.9499 240.068 28.3643 239.091 28.6982C238.126 29.0322 236.895 29.2858 235.398 29.459C233.914 29.6322 232.083 29.7188 229.906 29.7188H214.487V41H210.925V12.5ZM214.487 26.75H229.906C231.489 26.75 232.819 26.7253 233.895 26.6758C234.984 26.6139 235.881 26.5088 236.586 26.3604C237.291 26.2119 237.835 26.0016 238.219 25.7295C238.602 25.4574 238.88 25.0986 239.054 24.6533C239.239 24.208 239.344 23.6761 239.369 23.0576C239.406 22.4268 239.425 21.6784 239.425 20.8125C239.425 20.0085 239.406 19.3158 239.369 18.7344C239.344 18.153 239.239 17.6644 239.054 17.2686C238.88 16.8727 238.602 16.5573 238.219 16.3223C237.835 16.0872 237.291 15.9079 236.586 15.7842C235.881 15.6481 234.984 15.5615 233.895 15.5244C232.819 15.4873 231.489 15.4688 229.906 15.4688H214.487V26.75ZM270.318 11.9062C272.495 11.9062 274.326 12.0423 275.81 12.3145C277.307 12.5742 278.538 12.9762 279.503 13.5205C280.468 14.0524 281.21 14.7266 281.729 15.543C282.249 16.3594 282.626 17.318 282.861 18.4189C283.109 19.5199 283.251 20.763 283.288 22.1484C283.337 23.5339 283.362 25.0677 283.362 26.75C283.362 28.4323 283.337 29.9661 283.288 31.3516C283.251 32.737 283.109 33.9801 282.861 35.0811C282.626 36.182 282.249 37.1406 281.729 37.957C281.21 38.7734 280.468 39.4538 279.503 39.998C278.538 40.5299 277.307 40.9258 275.81 41.1855C274.326 41.4577 272.495 41.5938 270.318 41.5938H259.594C257.417 41.5938 255.58 41.4577 254.083 41.1855C252.599 40.9258 251.374 40.5299 250.409 39.998C249.444 39.4538 248.696 38.7734 248.164 37.957C247.644 37.1406 247.261 36.182 247.014 35.0811C246.779 33.9801 246.642 32.737 246.605 31.3516C246.568 29.9661 246.55 28.4323 246.55 26.75C246.55 25.0677 246.568 23.5339 246.605 22.1484C246.642 20.763 246.779 19.5199 247.014 18.4189C247.261 17.318 247.644 16.3594 248.164 15.543C248.696 14.7266 249.444 14.0524 250.409 13.5205C251.374 12.9762 252.599 12.5742 254.083 12.3145C255.58 12.0423 257.417 11.9062 259.594 11.9062H270.318ZM270.318 38.625C271.889 38.625 273.213 38.5817 274.289 38.4951C275.377 38.3962 276.274 38.2044 276.979 37.9199C277.684 37.6354 278.229 37.2272 278.612 36.6953C278.996 36.1634 279.274 35.4583 279.447 34.5801C279.62 33.7018 279.719 32.6257 279.744 31.3516C279.781 30.0651 279.8 28.5312 279.8 26.75C279.8 24.9688 279.781 23.4411 279.744 22.167C279.719 20.8805 279.62 19.7982 279.447 18.9199C279.274 18.0417 278.996 17.3366 278.612 16.8047C278.229 16.2728 277.684 15.8646 276.979 15.5801C276.287 15.2956 275.396 15.11 274.307 15.0234C273.231 14.9245 271.902 14.875 270.318 14.875H259.594C258.01 14.875 256.674 14.9245 255.586 15.0234C254.51 15.11 253.619 15.2956 252.914 15.5801C252.209 15.8646 251.665 16.2728 251.281 16.8047C250.898 17.3366 250.619 18.0417 250.446 18.9199C250.273 19.7982 250.174 20.8805 250.149 22.167C250.125 23.4411 250.112 24.9688 250.112 26.75C250.112 28.5312 250.125 30.0651 250.149 31.3516C250.186 32.6257 250.292 33.7018 250.465 34.5801C250.638 35.4583 250.91 36.1634 251.281 36.6953C251.665 37.2272 252.209 37.6354 252.914 37.9199C253.619 38.2044 254.51 38.3962 255.586 38.4951C256.674 38.5817 258.01 38.625 259.594 38.625H270.318ZM292.862 41H289.3V12.5H295.553L321.678 37.4375V12.5H325.24V41H320.49L292.862 15.4688V41ZM363.277 21.4062C363.277 19.9219 363.116 18.7467 362.795 17.8809C362.473 17.015 361.941 16.3594 361.199 15.9141C360.457 15.4688 359.48 15.1842 358.267 15.0605C357.055 14.9368 355.558 14.875 353.777 14.875H344.24C342.657 14.875 341.321 14.9245 340.232 15.0234C339.156 15.11 338.266 15.2956 337.56 15.5801C336.855 15.8646 336.311 16.2728 335.928 16.8047C335.544 17.3366 335.266 18.0417 335.093 18.9199C334.919 19.7982 334.821 20.8805 334.796 22.167C334.771 23.4411 334.759 24.9688 334.759 26.75C334.759 28.5312 334.771 30.0651 334.796 31.3516C334.833 32.6257 334.938 33.7018 335.111 34.5801C335.284 35.4583 335.557 36.1634 335.928 36.6953C336.311 37.2272 336.855 37.6354 337.56 37.9199C338.266 38.2044 339.156 38.3962 340.232 38.4951C341.321 38.5817 342.657 38.625 344.24 38.625H353.796C355.181 38.625 356.375 38.5879 357.377 38.5137C358.379 38.4395 359.232 38.3034 359.937 38.1055C360.642 37.9076 361.211 37.6354 361.644 37.2891C362.077 36.9427 362.411 36.5098 362.646 35.9902C362.894 35.4583 363.061 34.8275 363.147 34.0977C363.234 33.3555 363.277 32.4896 363.277 31.5V29.7188H348.99V26.75H366.84V31.5C366.84 32.6875 366.766 33.7637 366.617 34.7285C366.469 35.681 366.203 36.5345 365.819 37.2891C365.448 38.0312 364.947 38.6745 364.316 39.2188C363.685 39.763 362.888 40.2145 361.923 40.5732C360.958 40.9196 359.807 41.1732 358.472 41.334C357.136 41.5072 355.577 41.5938 353.796 41.5938H344.24C342.063 41.5938 340.226 41.4577 338.729 41.1855C337.245 40.9258 336.02 40.5299 335.056 39.998C334.091 39.4538 333.342 38.7734 332.81 37.957C332.291 37.1406 331.907 36.182 331.66 35.0811C331.425 33.9801 331.289 32.737 331.252 31.3516C331.215 29.9661 331.196 28.4323 331.196 26.75C331.196 25.0677 331.215 23.5339 331.252 22.1484C331.289 20.763 331.425 19.5199 331.66 18.4189C331.907 17.318 332.291 16.3594 332.81 15.543C333.342 14.7266 334.091 14.0524 335.056 13.5205C336.02 12.9762 337.245 12.5742 338.729 12.3145C340.226 12.0423 342.063 11.9062 344.24 11.9062H353.777C355.558 11.9062 357.117 11.9928 358.453 12.166C359.789 12.3268 360.939 12.5804 361.904 12.9268C362.869 13.2607 363.667 13.6875 364.298 14.207C364.941 14.7266 365.448 15.3389 365.819 16.0439C366.203 16.749 366.469 17.5469 366.617 18.4375C366.766 19.3281 366.84 20.3177 366.84 21.4062H363.277Z" fill="white"/>
</svg>
