<svg width="16" height="16" viewBox="0 0 16 16" fill="none" xmlns="http://www.w3.org/2000/svg">
<path d="M7.99992 1.33325C4.31992 1.33325 1.33325 4.31992 1.33325 7.99992C1.33325 11.6799 4.31992 14.6666 7.99992 14.6666C11.6799 14.6666 14.6666 11.6799 14.6666 7.99992C14.6666 4.31992 11.6799 1.33325 7.99992 1.33325ZM2.66659 7.99992C2.66659 5.05325 5.05325 2.66659 7.99992 2.66659C9.23325 2.66659 10.3666 3.08659 11.2666 3.79325L3.79325 11.2666C3.0611 10.3353 2.66418 9.18451 2.66659 7.99992ZM7.99992 13.3333C6.76658 13.3333 5.63325 12.9133 4.73325 12.2066L12.2066 4.73325C12.9387 5.66449 13.3357 6.81533 13.3333 7.99992C13.3333 10.9466 10.9466 13.3333 7.99992 13.3333Z" fill="black"/>
</svg>
