<svg width="32" height="28" viewBox="0 0 32 28" fill="none" xmlns="http://www.w3.org/2000/svg">
<g clip-path="url(#clip0_604_361)">
<path d="M16 25.9894C19.5362 25.9894 22.9276 24.9301 25.4281 23.0446C27.9286 21.1592 29.3333 18.6019 29.3333 15.9354C29.3333 13.2689 27.9286 10.7116 25.4281 8.82615C22.9276 6.94066 19.5362 5.8814 16 5.8814C12.4638 5.8814 9.07239 6.94066 6.57191 8.82615C4.07142 10.7116 2.66667 13.2689 2.66667 15.9354C2.66667 18.6019 4.07142 21.1592 6.57191 23.0446C9.07239 24.9301 12.4638 25.9894 16 25.9894V25.9894ZM16 28.0002C11.7565 28.0002 7.68687 26.7291 4.68629 24.4665C1.68571 22.2039 0 19.1352 0 15.9354C0 12.7356 1.68571 9.66689 4.68629 7.4043C7.68687 5.14171 11.7565 3.87061 16 3.87061C20.2435 3.87061 24.3131 5.14171 27.3137 7.4043C30.3143 9.66689 32 12.7356 32 15.9354C32 19.1352 30.3143 22.2039 27.3137 24.4665C24.3131 26.7291 20.2435 28.0002 16 28.0002Z" fill="black"/>
<path d="M15.9614 8.22461C16.2941 8.22461 16.6131 8.32655 16.8484 8.50801C17.0836 8.68947 17.2158 8.93559 17.2158 9.19221L17.1957 15.9654C17.1957 16.2221 17.0635 16.4682 16.8283 16.6496C16.593 16.8311 16.274 16.933 15.9413 16.933C15.6086 16.933 15.2895 16.8311 15.0543 16.6496C14.819 16.4682 14.6869 16.2221 14.6869 15.9654L14.707 9.19221C14.707 8.93559 14.8391 8.68947 15.0744 8.50801C15.3096 8.32655 15.6287 8.22461 15.9614 8.22461V8.22461Z" fill="black"/>
<path d="M13.2279 15.9117C13.2279 16.4392 13.5149 16.9451 14.0256 17.3181C14.5363 17.6911 15.229 17.9006 15.9513 17.9006C16.6736 17.9006 17.3663 17.6911 17.8771 17.3181C18.3878 16.9451 18.6747 16.4392 18.6747 15.9117C18.6747 15.3842 18.3878 14.8783 17.8771 14.5053C17.3663 14.1323 16.6736 13.9227 15.9513 13.9227C15.229 13.9227 14.5363 14.1323 14.0256 14.5053C13.5149 14.8783 13.2279 15.3842 13.2279 15.9117ZM17.313 1.98896V5.96688H14.5896V1.98896H10.5045C10.1434 1.98896 9.79702 1.88419 9.54166 1.69768C9.28629 1.51118 9.14282 1.25823 9.14282 0.99448C9.14282 0.730728 9.28629 0.477778 9.54166 0.291277C9.79702 0.104775 10.1434 0 10.5045 0H21.3981C21.7593 0 22.1056 0.104775 22.361 0.291277C22.6164 0.477778 22.7598 0.730728 22.7598 0.99448C22.7598 1.25823 22.6164 1.51118 22.361 1.69768C22.1056 1.88419 21.7593 1.98896 21.3981 1.98896H17.313Z" fill="black"/>
</g>
<defs>
<clipPath id="clip0_604_361">
<rect width="32" height="28" fill="white"/>
</clipPath>
</defs>
</svg>
