<svg width="211" height="26" viewBox="0 0 211 26" fill="none" xmlns="http://www.w3.org/2000/svg">
<path fill-rule="evenodd" clip-rule="evenodd" d="M91.7013 0.0285978C90.6189 0.311575 90.7972 1.84401 91.9219 1.92313C92.0925 1.9352 92.1689 1.96765 92.1966 2.03997C92.2072 2.06735 92.2133 2.98475 92.2135 4.53757C92.2137 6.45147 92.2184 7.0009 92.2348 7.03295L92.2559 7.07412L92.8078 7.07524C93.3085 7.07625 93.3613 7.07372 93.3752 7.04785C93.3841 7.03132 93.3905 5.99049 93.3905 4.56658C93.3905 1.65719 93.3544 1.96593 93.7005 1.92079C94.1397 1.86349 94.4298 1.64613 94.5588 1.27776C94.8801 0.359752 93.7794 -0.389884 93.0142 0.225972C92.8178 0.383993 92.7723 0.383283 92.561 0.218771C92.3148 0.0270764 91.9857 -0.0456458 91.7013 0.0285978ZM106.502 1.91907C105.868 2.06289 105.567 2.72631 105.862 3.33162C105.944 3.49837 105.949 3.56247 105.888 3.63428C105.853 3.67596 102.028 6.13797 98.0743 8.66438C97.6708 8.9222 97.3219 9.15112 97.2991 9.17313C97.248 9.22252 97.2548 9.24078 97.395 9.43014C97.4496 9.50377 97.519 9.59952 97.5493 9.64293C97.6237 9.74932 97.6453 9.74608 97.8784 9.59364C98.8169 8.97991 99.7559 8.55362 100.555 8.37876C100.735 8.33941 100.572 8.44002 103.644 6.47064C105.196 5.47545 106.498 4.65005 106.536 4.63636C106.639 4.59995 106.706 4.63656 106.807 4.78231C107.099 5.20475 107.61 5.35314 108.05 5.14308C108.824 4.77369 108.772 3.66623 107.967 3.37331C107.662 3.26225 107.672 3.27624 107.674 2.94813C107.68 2.24941 107.14 1.77464 106.502 1.91907ZM78.8397 1.97171C78.3925 2.12263 78.1816 2.44313 78.1799 2.9743L78.1789 3.25038L78.1331 3.28943C78.1079 3.31093 78.035 3.34552 77.971 3.36621C77.232 3.60537 77.0066 4.44264 77.5384 4.9734C77.9765 5.41064 78.6558 5.34208 79.0377 4.82197C79.2065 4.59194 79.1833 4.58453 80.0644 5.14886C80.7767 5.60508 84.97 8.28413 85.0436 8.33018C85.0653 8.34367 85.2035 8.38505 85.3507 8.42217C86.2072 8.6377 87.0736 9.04797 87.9338 9.64536C88.0807 9.7475 88.0876 9.74476 88.2439 9.52223C88.3137 9.42284 88.3908 9.31532 88.4152 9.28327C88.4792 9.19899 88.4728 9.15791 88.3868 9.09949C88.3107 9.04776 86.0953 7.63115 82.2912 5.2015C81.043 4.4044 79.9968 3.72617 79.9663 3.69452C79.8869 3.61196 79.8901 3.53397 79.9794 3.37382C80.4143 2.59335 79.6788 1.68853 78.8397 1.97171ZM92.3416 7.65326C90.1368 7.8906 88.3074 9.60763 87.8553 11.8643C87.7625 12.3271 87.7178 12.8796 87.7439 13.2413C87.8131 14.2015 88.6068 14.9606 89.948 15.3491C90.3612 15.4688 90.3565 15.456 90.1905 16.0019C90.0982 16.3059 90.0808 16.4038 90.1154 16.425C90.1411 16.4407 90.7084 16.585 90.7446 16.585C90.7996 16.585 90.8266 16.5282 90.9094 16.2391C91.0264 15.8304 91.0487 15.8123 91.3857 15.8535C91.8389 15.9088 91.8528 15.9278 91.7867 16.399C91.7333 16.7785 91.7145 16.7536 92.0917 16.8031C92.4508 16.85 92.4229 16.8828 92.4439 16.3906C92.4606 15.9967 92.4717 15.9873 92.9094 15.9917C93.3973 15.9966 93.4037 16.0043 93.3759 16.5596C93.3557 16.9602 93.3503 16.9476 93.5404 16.9351C93.9398 16.9091 94.1448 16.8835 94.1799 16.8553L94.2155 16.8267L94.1357 16.5052C94.0014 15.9632 94.0094 15.9466 94.4229 15.909C94.9288 15.863 94.9191 15.8572 95.0735 16.3008C95.2051 16.6789 95.1728 16.663 95.5437 16.5337C95.8938 16.4118 95.8779 16.4548 95.7287 16.0324C95.5903 15.6406 95.5749 15.5675 95.6146 15.4912C95.643 15.437 95.6662 15.4238 95.9043 15.3269C97.6155 14.6303 98.2461 13.1853 97.6838 11.2498C97.04 9.03377 94.6245 7.40761 92.3416 7.65326ZM84.0486 8.87007C81.9534 9.03539 80.1503 10.2263 79.6495 11.7757C79.4704 12.3294 79.4486 12.9159 79.5627 14.0998C79.5948 14.4331 79.6068 14.4508 79.9014 14.601C80.0512 14.6775 80.0701 14.6702 80.0983 14.5256C80.1414 14.3056 80.2028 14.2183 80.3144 14.2183C80.375 14.2183 80.3912 14.1983 80.4132 14.0963C80.4665 13.8491 80.6711 13.9556 81.0702 14.4381C81.225 14.6253 81.2327 14.6253 81.5651 14.4331C82.3569 13.9755 83.0304 13.1886 83.4032 12.2856C83.6403 11.7113 83.8077 11.524 84.0306 11.5833C84.5306 11.7165 84.6242 13.7434 84.152 14.2111C83.8386 14.5216 81.8807 15.2002 81.2844 15.2051C81.0449 15.207 80.9355 15.13 80.7043 14.7966C80.5448 14.5665 80.544 14.5671 80.5537 14.8988C80.5646 15.2651 80.5098 15.3679 80.304 15.3679C80.1436 15.3679 80.1434 15.3729 80.2853 15.725C80.6347 16.5921 80.8787 17.5009 80.9413 18.1688C80.9682 18.4548 80.9824 18.4696 81.1778 18.4164C81.2383 18.4 81.242 18.3563 81.2075 18.0703C81.1418 17.5246 81.1512 17.5013 81.4721 17.414C81.8213 17.3188 81.846 17.3435 81.9317 17.8735C82.0084 18.3477 81.9939 18.3221 82.1697 18.292C82.4011 18.2522 82.3953 18.2719 82.308 17.8295C82.2068 17.316 82.213 17.3003 82.5641 17.1886C82.9222 17.0747 82.9243 17.0765 83.0938 17.6617C83.234 18.1454 83.2053 18.1186 83.4791 18.0218C83.7841 17.914 83.7759 17.9626 83.5684 17.4911C83.3281 16.9454 83.3309 16.9276 83.6733 16.8025C84.0407 16.6682 84.0503 16.6744 84.3038 17.2085C84.5411 17.7086 84.4967 17.6781 84.8067 17.554C85.12 17.4287 85.1127 17.4701 84.8977 17.0329C84.7093 16.6498 84.6919 16.5738 84.7738 16.4927C84.8097 16.4571 85.7436 15.996 87.4825 15.1555C87.9071 14.9502 87.8956 14.9674 87.733 14.7828C86.9264 13.8665 86.8806 12.3941 87.6021 10.5711C87.7612 10.1691 87.7779 10.2184 87.398 9.96992C86.1766 9.1711 85.0255 8.79308 84.0486 8.87007ZM101.06 8.86997C100.279 8.9505 99.2714 9.36452 98.2744 10.0146C97.9558 10.2223 97.9672 10.1909 98.0885 10.5221C98.7528 12.3353 98.6561 13.8223 97.8115 14.7847C97.7026 14.9087 97.6931 14.9292 97.7303 14.9599C97.7428 14.9702 98.4358 15.305 99.2702 15.704C100.324 16.2078 100.807 16.4472 100.851 16.4876C100.952 16.5791 100.945 16.6162 100.745 17.0325C100.529 17.4814 100.518 17.4275 100.845 17.5575C101.143 17.6762 101.11 17.6986 101.334 17.2189C101.593 16.6643 101.591 16.6652 101.973 16.8047C102.309 16.9274 102.312 16.9469 102.084 17.4657C101.869 17.9558 101.862 17.9203 102.19 18.0324C102.432 18.1153 102.41 18.1382 102.545 17.6705C102.717 17.0751 102.721 17.0715 103.113 17.201C103.427 17.3044 103.435 17.3253 103.339 17.8046C103.259 18.2078 103.258 18.2164 103.308 18.2479C103.366 18.2836 103.57 18.3141 103.61 18.293C103.648 18.2726 103.648 18.2749 103.713 17.8597C103.793 17.347 103.823 17.3182 104.173 17.4153C104.395 17.4767 104.426 17.4999 104.471 17.6368C104.476 17.6528 104.465 17.8004 104.447 17.9649C104.395 18.4234 104.393 18.4108 104.544 18.4336C104.662 18.4514 104.679 18.4235 104.701 18.1739C104.759 17.5104 104.996 16.6239 105.345 15.7582C105.507 15.3573 105.509 15.3804 105.311 15.3622C105.112 15.3441 105.073 15.2613 105.086 14.8881C105.098 14.5548 105.103 14.5579 104.937 14.8003C104.716 15.1225 104.592 15.2084 104.354 15.2054C103.714 15.1975 101.691 14.4778 101.447 14.1713C101.012 13.623 101.132 11.709 101.611 11.5827C101.83 11.5247 101.992 11.6969 102.212 12.2224C102.652 13.2716 103.406 14.1236 104.248 14.5241C104.43 14.6108 104.427 14.6117 104.605 14.3996C104.89 14.0598 104.981 13.9817 105.094 13.9817C105.165 13.9817 105.204 14.0206 105.233 14.1198C105.259 14.2077 105.261 14.2101 105.332 14.2197C105.443 14.2344 105.482 14.2851 105.528 14.4715C105.583 14.6937 105.594 14.6948 105.9 14.5122C106.066 14.4134 106.085 14.3147 106.137 13.2633C106.199 12.0419 105.954 11.2979 105.231 10.5C104.325 9.50114 102.366 8.73537 101.06 8.86997ZM73.7444 11.5564C73.2851 11.6716 72.9792 12.0807 73.0052 12.5448C73.0189 12.7904 73.0635 12.895 73.2815 13.1933C73.3762 13.3228 73.3669 13.3858 73.2284 13.5544C72.6987 14.1988 73.1485 15.144 73.9816 15.1372C74.4932 15.1329 74.942 14.6894 74.9453 14.1846C74.946 14.0857 74.9781 14.0004 75.0266 13.9688C75.0688 13.9414 75.2049 13.9389 76.9979 13.931C79.1801 13.9215 78.9857 13.9357 78.9661 13.7873C78.9612 13.7502 78.9488 13.5372 78.9385 13.314C78.9146 12.7963 78.9163 12.8059 78.8499 12.783C78.8128 12.7702 78.2362 12.7646 76.949 12.7646C75.8161 12.7646 75.0847 12.7583 75.0585 12.7485C74.9862 12.7213 74.959 12.6582 74.9428 12.4808C74.8836 11.8319 74.3344 11.4083 73.7444 11.5564ZM111.87 11.5422C111.438 11.6138 111.119 11.9575 111.065 12.4082C111.037 12.6484 111.034 12.6613 110.992 12.7096L110.951 12.7562L108.872 12.7646C107.729 12.7693 106.78 12.7795 106.764 12.7873C106.726 12.806 106.72 12.8476 106.708 13.221C106.702 13.393 106.691 13.6022 106.684 13.6859C106.668 13.8696 106.679 13.9057 106.752 13.9201C106.782 13.9261 107.729 13.931 108.856 13.9311C111.288 13.9311 111.029 13.8958 111.059 14.2316C111.134 15.0703 112.123 15.4425 112.713 14.8545C113.082 14.4873 113.096 13.9783 112.75 13.528C112.614 13.3516 112.617 13.313 112.778 13.105C113.326 12.3955 112.746 11.397 111.87 11.5422ZM88.821 11.7097C88.9392 11.7698 89.0824 11.8967 89.3025 12.1363C90.0281 12.9259 90.8639 13.3905 91.8609 13.5588C92.2238 13.62 92.2595 13.611 92.3068 13.445C92.4748 12.8545 92.5971 12.687 92.7501 12.8385C92.9229 13.0098 92.7413 13.9172 92.4905 14.1353C92.3038 14.2978 91.7995 14.3606 90.6861 14.3602C89.208 14.3597 89.0358 14.2815 88.6793 13.4481C88.2091 12.349 88.2836 11.4358 88.821 11.7097ZM97.1342 11.6894C97.6146 11.8883 97.0736 13.8853 96.4502 14.2142C96.0235 14.4392 93.705 14.4089 93.2374 14.172C92.9413 14.0221 92.7523 13.1928 92.9747 13.0195C93.1099 12.9141 93.2125 13.0185 93.3561 13.4071C93.4331 13.6158 93.4531 13.6223 93.8248 13.5593C94.8805 13.3805 95.5914 12.9717 96.5046 12.0183C96.8101 11.6994 96.964 11.619 97.1342 11.6894ZM93.063 14.278C93.3731 14.3479 93.5132 14.5445 93.442 14.8102C93.3378 15.1988 92.4974 15.2328 92.3079 14.856C92.1232 14.4887 92.5496 14.1622 93.063 14.278ZM97.0779 15.3288C97.0648 15.3342 96.9638 15.3965 96.8535 15.4673C96.7432 15.5381 96.6292 15.609 96.6001 15.6249C96.5373 15.6591 96.5335 15.6877 96.5856 15.7346C96.6148 15.761 99.2332 17.4392 99.8525 17.8285C100.546 18.2645 105.835 21.6599 105.876 21.6954C105.967 21.7746 105.967 21.834 105.875 22.0164C105.604 22.5576 105.775 23.1365 106.276 23.372C106.981 23.7036 107.702 23.2126 107.668 22.4243C107.655 22.1296 107.673 22.1001 107.904 22.022C108.347 21.8727 108.594 21.542 108.594 21.0963C108.594 20.1928 107.446 19.7915 106.878 20.4966C106.73 20.6805 106.675 20.7265 106.604 20.7265C106.521 20.7264 106.621 20.7873 105.062 19.7886C104.353 19.3349 103.735 18.9464 103.688 18.9253C103.555 18.8655 102.942 18.765 102.741 18.77L102.579 18.7741L102.007 18.5697C101.693 18.4573 101.392 18.3559 101.338 18.3445C101.183 18.3117 99.9428 17.8098 99.8921 17.7596C99.8116 17.6797 99.8296 17.6046 100.026 17.2043C100.212 16.8254 100.219 16.8015 100.16 16.7639C100.088 16.7175 97.1872 15.3356 97.1444 15.3274C97.121 15.3229 97.091 15.3235 97.0779 15.3288ZM87.9121 15.5761C86.0396 16.4789 85.4685 16.7628 85.4518 16.7993C85.437 16.8315 85.4612 16.8915 85.6094 17.1917C85.8125 17.6031 85.8286 17.6659 85.7525 17.7496C85.6957 17.8121 84.4931 18.3044 84.2795 18.3524C84.2139 18.3673 83.9047 18.4708 83.5925 18.5825L83.0248 18.7855L82.8798 18.775C82.7191 18.7632 82.2362 18.8375 82.1344 18.8896C82.106 18.9042 81.4716 19.3078 80.7248 19.7864C79.1654 20.7857 79.3193 20.6927 79.2257 20.6927C79.1583 20.6927 79.1458 20.6852 79.0668 20.5971C78.6992 20.1875 78.3951 20.0649 77.9845 20.1609C77.07 20.3744 76.9943 21.6759 77.8779 21.9941C77.9309 22.0132 78.0075 22.041 78.0481 22.0558C78.1721 22.1009 78.1907 22.1495 78.1774 22.3917C78.1432 23.0132 78.5484 23.465 79.1399 23.465C79.9096 23.465 80.398 22.5676 79.9449 21.9857C79.8446 21.8571 79.8362 21.7817 79.9131 21.7015C79.9597 21.6528 83.916 19.1087 88.3228 16.2934C89.3155 15.6593 89.2571 15.7156 89.028 15.6121C88.9554 15.5794 88.8066 15.5034 88.6971 15.4434C88.4428 15.3036 88.4959 15.2947 87.9121 15.5761ZM81.2801 15.841C81.6789 15.9889 81.6845 16.5638 81.2876 16.6365C81.053 16.6795 80.8497 16.5797 80.753 16.374C80.5953 16.0383 80.9216 15.7082 81.2801 15.841ZM104.698 15.8468C105.118 16.0618 104.936 16.6426 104.449 16.6416C104.188 16.6411 104.069 16.5247 104.069 16.2688C104.068 15.9417 104.421 15.7048 104.698 15.8468ZM92.2556 17.4198C92.2221 17.4441 92.2217 17.4795 92.2132 20.6956C92.2062 23.3585 92.2006 23.9539 92.182 23.9862C92.1514 24.0395 92.0627 24.0735 91.9536 24.0739C91.5916 24.0751 91.2336 24.291 91.0796 24.6012C90.6092 25.5481 91.7628 26.4396 92.5824 25.7626C92.7531 25.6215 92.825 25.6212 92.9994 25.761C93.836 26.4317 94.9794 25.552 94.5072 24.6012C94.357 24.2987 94.0659 24.1147 93.6767 24.0758C93.5878 24.067 93.5097 24.0493 93.4833 24.0321C93.3851 23.9684 93.3905 24.1606 93.3905 20.7428C93.3905 18.5335 93.3851 17.5869 93.3722 17.563C93.3549 17.5309 93.3431 17.5298 93.1453 17.5409C92.9392 17.5526 92.9353 17.5521 92.8181 17.5021C92.7404 17.4689 92.6436 17.4446 92.5374 17.4315C92.4483 17.4205 92.356 17.408 92.3324 17.4035C92.3087 17.399 92.2741 17.4064 92.2556 17.4198Z" fill="#EFF6FC"/>
<path d="M15.1357 4.15625C16.3962 4.15625 17.4561 4.23503 18.3154 4.39258C19.182 4.54297 19.8945 4.77572 20.4531 5.09082C21.0117 5.39876 21.4414 5.78906 21.7422 6.26172C22.043 6.73438 22.2614 7.28939 22.3975 7.92676C22.5407 8.56413 22.623 9.28385 22.6445 10.0859C22.6732 10.888 22.6875 11.776 22.6875 12.75C22.6875 13.724 22.6732 14.612 22.6445 15.4141C22.623 16.2161 22.5407 16.9359 22.3975 17.5732C22.2614 18.2106 22.043 18.7656 21.7422 19.2383C21.4414 19.7109 21.0117 20.1048 20.4531 20.4199C19.8945 20.7279 19.182 20.957 18.3154 21.1074C17.4561 21.265 16.3962 21.3438 15.1357 21.3438H8.92676C7.66634 21.3438 6.60286 21.265 5.73633 21.1074C4.87695 20.957 4.16797 20.7279 3.60938 20.4199C3.05078 20.1048 2.61751 19.7109 2.30957 19.2383C2.00879 18.7656 1.78678 18.2106 1.64355 17.5732C1.50749 16.9359 1.42871 16.2161 1.40723 15.4141C1.38574 14.612 1.375 13.724 1.375 12.75C1.375 11.776 1.38574 10.888 1.40723 10.0859C1.42871 9.28385 1.50749 8.56413 1.64355 7.92676C1.78678 7.28939 2.00879 6.73438 2.30957 6.26172C2.61751 5.78906 3.05078 5.39876 3.60938 5.09082C4.16797 4.77572 4.87695 4.54297 5.73633 4.39258C6.60286 4.23503 7.66634 4.15625 8.92676 4.15625H15.1357ZM15.1357 19.625C16.0452 19.625 16.8115 19.5999 17.4346 19.5498C18.0648 19.4925 18.584 19.3815 18.9922 19.2168C19.4004 19.0521 19.7155 18.8158 19.9375 18.5078C20.1595 18.1999 20.3206 17.7917 20.4209 17.2832C20.5212 16.7747 20.5785 16.1517 20.5928 15.4141C20.6143 14.6693 20.625 13.7812 20.625 12.75C20.625 11.7188 20.6143 10.8343 20.5928 10.0967C20.5785 9.35189 20.5212 8.72526 20.4209 8.2168C20.3206 7.70833 20.1595 7.30013 19.9375 6.99219C19.7155 6.68424 19.4004 6.44792 18.9922 6.2832C18.5911 6.11849 18.0755 6.01107 17.4453 5.96094C16.8223 5.90365 16.0524 5.875 15.1357 5.875H8.92676C8.01009 5.875 7.23665 5.90365 6.60645 5.96094C5.9834 6.01107 5.46777 6.11849 5.05957 6.2832C4.65137 6.44792 4.33626 6.68424 4.11426 6.99219C3.89225 7.30013 3.73112 7.70833 3.63086 8.2168C3.5306 8.72526 3.47331 9.35189 3.45898 10.0967C3.44466 10.8343 3.4375 11.7188 3.4375 12.75C3.4375 13.7812 3.44466 14.6693 3.45898 15.4141C3.48047 16.1517 3.54134 16.7747 3.6416 17.2832C3.74186 17.7917 3.89941 18.1999 4.11426 18.5078C4.33626 18.8158 4.65137 19.0521 5.05957 19.2168C5.46777 19.3815 5.9834 19.4925 6.60645 19.5498C7.23665 19.5999 8.01009 19.625 8.92676 19.625H15.1357ZM28.1875 21H26.125V4.5H29.7451L44.8701 18.9375V4.5H46.9326V21H44.1826L28.1875 6.21875V21ZM51.0684 21V4.5H67.5684V6.21875H53.1309V11.7188H66.8809V13.4375H53.1309V19.2812H67.5684V21H51.0684Z" fill="white"/>
<path d="M119.062 4.5H131.459C132.483 4.5 133.346 4.54655 134.048 4.63965C134.757 4.72559 135.34 4.85807 135.799 5.03711C136.257 5.21615 136.608 5.43815 136.852 5.70312C137.102 5.9681 137.285 6.27962 137.399 6.6377C137.514 6.99577 137.578 7.39681 137.593 7.84082C137.614 8.28483 137.625 8.77539 137.625 9.3125C137.625 9.87109 137.611 10.3867 137.582 10.8594C137.561 11.332 137.478 11.7617 137.335 12.1484C137.199 12.528 136.977 12.8646 136.669 13.1582C136.368 13.4447 135.935 13.6846 135.369 13.8779C134.811 14.0713 134.098 14.2181 133.231 14.3184C132.372 14.4186 131.312 14.4688 130.052 14.4688H121.125V21H119.062V4.5ZM121.125 12.75H130.052C130.968 12.75 131.738 12.7357 132.361 12.707C132.992 12.6712 133.511 12.6104 133.919 12.5244C134.327 12.4385 134.642 12.3167 134.864 12.1592C135.086 12.0016 135.247 11.7939 135.348 11.5361C135.455 11.2783 135.516 10.9704 135.53 10.6123C135.552 10.2471 135.562 9.8138 135.562 9.3125C135.562 8.84701 135.552 8.44596 135.53 8.10938C135.516 7.77279 135.455 7.48991 135.348 7.26074C135.247 7.03158 135.086 6.84896 134.864 6.71289C134.642 6.57682 134.327 6.47298 133.919 6.40137C133.511 6.32259 132.992 6.27246 132.361 6.25098C131.738 6.22949 130.968 6.21875 130.052 6.21875H121.125V12.75ZM153.448 4.15625C154.709 4.15625 155.769 4.23503 156.628 4.39258C157.494 4.54297 158.207 4.77572 158.766 5.09082C159.324 5.39876 159.754 5.78906 160.055 6.26172C160.355 6.73438 160.574 7.28939 160.71 7.92676C160.853 8.56413 160.936 9.28385 160.957 10.0859C160.986 10.888 161 11.776 161 12.75C161 13.724 160.986 14.612 160.957 15.4141C160.936 16.2161 160.853 16.9359 160.71 17.5732C160.574 18.2106 160.355 18.7656 160.055 19.2383C159.754 19.7109 159.324 20.1048 158.766 20.4199C158.207 20.7279 157.494 20.957 156.628 21.1074C155.769 21.265 154.709 21.3438 153.448 21.3438H147.239C145.979 21.3438 144.915 21.265 144.049 21.1074C143.189 20.957 142.48 20.7279 141.922 20.4199C141.363 20.1048 140.93 19.7109 140.622 19.2383C140.321 18.7656 140.099 18.2106 139.956 17.5732C139.82 16.9359 139.741 16.2161 139.72 15.4141C139.698 14.612 139.688 13.724 139.688 12.75C139.688 11.776 139.698 10.888 139.72 10.0859C139.741 9.28385 139.82 8.56413 139.956 7.92676C140.099 7.28939 140.321 6.73438 140.622 6.26172C140.93 5.78906 141.363 5.39876 141.922 5.09082C142.48 4.77572 143.189 4.54297 144.049 4.39258C144.915 4.23503 145.979 4.15625 147.239 4.15625H153.448ZM153.448 19.625C154.358 19.625 155.124 19.5999 155.747 19.5498C156.377 19.4925 156.896 19.3815 157.305 19.2168C157.713 19.0521 158.028 18.8158 158.25 18.5078C158.472 18.1999 158.633 17.7917 158.733 17.2832C158.834 16.7747 158.891 16.1517 158.905 15.4141C158.927 14.6693 158.938 13.7812 158.938 12.75C158.938 11.7188 158.927 10.8343 158.905 10.0967C158.891 9.35189 158.834 8.72526 158.733 8.2168C158.633 7.70833 158.472 7.30013 158.25 6.99219C158.028 6.68424 157.713 6.44792 157.305 6.2832C156.904 6.11849 156.388 6.01107 155.758 5.96094C155.135 5.90365 154.365 5.875 153.448 5.875H147.239C146.323 5.875 145.549 5.90365 144.919 5.96094C144.296 6.01107 143.78 6.11849 143.372 6.2832C142.964 6.44792 142.649 6.68424 142.427 6.99219C142.205 7.30013 142.044 7.70833 141.943 8.2168C141.843 8.72526 141.786 9.35189 141.771 10.0967C141.757 10.8343 141.75 11.7188 141.75 12.75C141.75 13.7812 141.757 14.6693 141.771 15.4141C141.793 16.1517 141.854 16.7747 141.954 17.2832C142.054 17.7917 142.212 18.1999 142.427 18.5078C142.649 18.8158 142.964 19.0521 143.372 19.2168C143.78 19.3815 144.296 19.4925 144.919 19.5498C145.549 19.5999 146.323 19.625 147.239 19.625H153.448ZM166.5 21H164.438V4.5H168.058L183.183 18.9375V4.5H185.245V21H182.495L166.5 6.21875V21ZM207.267 9.65625C207.267 8.79688 207.174 8.11654 206.987 7.61523C206.801 7.11393 206.493 6.73438 206.063 6.47656C205.634 6.21875 205.068 6.05404 204.366 5.98242C203.664 5.91081 202.798 5.875 201.767 5.875H196.245C195.328 5.875 194.555 5.90365 193.925 5.96094C193.302 6.01107 192.786 6.11849 192.378 6.2832C191.97 6.44792 191.655 6.68424 191.433 6.99219C191.211 7.30013 191.049 7.70833 190.949 8.2168C190.849 8.72526 190.792 9.35189 190.777 10.0967C190.763 10.8343 190.756 11.7188 190.756 12.75C190.756 13.7812 190.763 14.6693 190.777 15.4141C190.799 16.1517 190.86 16.7747 190.96 17.2832C191.06 17.7917 191.218 18.1999 191.433 18.5078C191.655 18.8158 191.97 19.0521 192.378 19.2168C192.786 19.3815 193.302 19.4925 193.925 19.5498C194.555 19.5999 195.328 19.625 196.245 19.625H201.777C202.579 19.625 203.271 19.6035 203.851 19.5605C204.431 19.5176 204.925 19.4388 205.333 19.3242C205.741 19.2096 206.071 19.0521 206.321 18.8516C206.572 18.651 206.765 18.4004 206.901 18.0996C207.045 17.7917 207.141 17.4264 207.191 17.0039C207.242 16.5742 207.267 16.0729 207.267 15.5V14.4688H198.995V12.75H209.329V15.5C209.329 16.1875 209.286 16.8105 209.2 17.3691C209.114 17.9206 208.96 18.4147 208.738 18.8516C208.523 19.2812 208.233 19.6536 207.868 19.9688C207.503 20.2839 207.041 20.5452 206.482 20.7529C205.924 20.9535 205.258 21.1003 204.484 21.1934C203.711 21.2936 202.809 21.3438 201.777 21.3438H196.245C194.985 21.3438 193.921 21.265 193.055 21.1074C192.195 20.957 191.486 20.7279 190.928 20.4199C190.369 20.1048 189.936 19.7109 189.628 19.2383C189.327 18.7656 189.105 18.2106 188.962 17.5732C188.826 16.9359 188.747 16.2161 188.726 15.4141C188.704 14.612 188.693 13.724 188.693 12.75C188.693 11.776 188.704 10.888 188.726 10.0859C188.747 9.28385 188.826 8.56413 188.962 7.92676C189.105 7.28939 189.327 6.73438 189.628 6.26172C189.936 5.78906 190.369 5.39876 190.928 5.09082C191.486 4.77572 192.195 4.54297 193.055 4.39258C193.921 4.23503 194.985 4.15625 196.245 4.15625H201.767C202.798 4.15625 203.7 4.20638 204.474 4.30664C205.247 4.39974 205.913 4.54655 206.472 4.74707C207.03 4.94043 207.492 5.1875 207.857 5.48828C208.23 5.78906 208.523 6.14355 208.738 6.55176C208.96 6.95996 209.114 7.42188 209.2 7.9375C209.286 8.45312 209.329 9.02604 209.329 9.65625H207.267Z" fill="white"/>
</svg>
