<svg width="925" height="142" viewBox="0 0 925 142" fill="none" xmlns="http://www.w3.org/2000/svg">
<path d="M658.144 1H266.856H263.358L281.348 25.0702H8.99567L18.9903 45.2105H1L28.4851 101.211H48.974L59.9681 122.333H194.395L201.891 134.614H316.329L320.827 141H603.174L606.172 134.614H721.61L727.606 121.351H864.033L875.027 101.211H894.516L924 45.7018H902.512L914.005 25.5614H640.154L658.144 1Z" fill="#3B1772" fill-opacity="0.51"/>
<path d="M623.163 33.4211L640.154 8.85965H281.348L298.839 33.9123M623.163 33.4211H898.014L891.018 45.7018H652.147L625.162 99.7368L864.033 101.211L858.036 113H727.606H569.192L560.197 129.211H362.804L354.808 113H64.4656L59.9681 101.211H301.337L271.354 45.2105L30.484 45.7018L23.4878 33.9123H298.839M623.163 33.4211L603.174 60.9298H320.827L298.839 33.9123M266.856 1H658.144L640.154 25.5614H914.005L902.512 45.7018H924L894.516 101.211H875.027L864.033 121.351H727.606L721.61 134.614H606.172L603.174 141H320.827L316.329 134.614H201.891L194.395 122.333H59.9681L48.974 101.211H28.4851L1 45.2105H18.9903L8.99567 25.0702H281.348L263.358 1H266.856ZM658.144 54.5439L640.154 89.4211H888.02L906.51 54.5439H658.144ZM14.9924 54.5439H266.856L285.846 91.386H34.4819L14.9924 54.5439Z" stroke="black"/>
<rect x="365.802" y="71.7368" width="193.895" height="41.2632" rx="5" fill="#5A427E"/>
<path d="M16.4916 56.0175L266.356 55.5263L284.347 90.4035H34.9816L16.4916 56.0175Z" fill="#5A427E"/>
<path d="M658.763 55.5263H905.01L887.52 88.4386L641.653 88.9298L658.763 55.5263Z" fill="#5A427E"/>
<path d="M282.847 9.8421H638.155L632.658 18.193L626.661 27.0351L620.664 35.386L614.168 44.7193L602.674 59.9474H321.326L301.337 35.386L298.839 32.4386L291.842 22.614L282.847 9.8421Z" fill="#5A427E"/>
</svg>
