<svg width="928" height="145" viewBox="0 0 928 145" fill="none" xmlns="http://www.w3.org/2000/svg">
<path d="M659.5 1H268H264.5L282.5 25.5H10L20 46H2L29.5 103H50L61 124.5H195.5L203 137H317.5L322 143.5H604.5L607.5 137H723L729 123.5H865.5L876.5 103H896L925.5 46.5H904L915.5 26H641.5L659.5 1Z" fill="#D9D9D9"/>
<path d="M624.5 34L641.5 9H282.5L300 34.5M624.5 34H899.5L892.5 46.5H653.5L626.5 101.5L865.5 103L859.5 115H729H570.5L561.5 131.5H364L356 115H65.5L61 103H302.5L272.5 46L31.5 46.5L24.5 34.5H300M624.5 34L604.5 62H322L300 34.5M268 1H659.5L641.5 26H915.5L904 46.5H925.5L896 103H876.5L865.5 123.5H729L723 137H607.5L604.5 143.5H322L317.5 137H203L195.5 124.5H61L50 103H29.5L2 46H20L10 25.5H282.5L264.5 1H268ZM659.5 55.5L641.5 91H889.5L908 55.5H659.5ZM16 55.5H268L287 93H35.5L16 55.5Z" stroke="#90877E" stroke-width="2"/>
<rect x="367" y="73" width="194" height="42" rx="10" fill="#90837D" fill-opacity="0.54"/>
<path d="M17.5 57L267.5 56.5L285.5 92H36L17.5 57Z" fill="#B2ABA7"/>
<path d="M660.12 56.5H906.5L889 90L643 90.5L660.12 56.5Z" fill="#B2ABA7"/>
</svg>
