<svg width="23" height="24" viewBox="0 0 23 24" fill="none" xmlns="http://www.w3.org/2000/svg">
<path opacity="0.6" d="M22.8621 22.4464L16.7022 15.9286C18.1825 14.0482 18.9206 11.6365 18.7631 9.19493C18.6056 6.75341 17.5646 4.47013 15.8566 2.82007C14.1486 1.17002 11.9051 0.28024 9.59289 0.33583C7.28066 0.391421 5.0777 1.3881 3.44228 3.11854C1.80687 4.84897 0.864918 7.17993 0.81238 9.6265C0.759842 12.0731 1.60076 14.4469 3.16021 16.2541C4.71965 18.0614 6.87756 19.1629 9.18501 19.3296C11.4925 19.4962 13.7718 18.7152 15.5489 17.1489L21.7088 23.6667L22.8621 22.4464ZM2.47055 9.85784C2.47055 8.32157 2.90109 6.81981 3.70773 5.54245C4.51436 4.26509 5.66087 3.26951 7.00225 2.68161C8.34364 2.09371 9.81966 1.93989 11.2437 2.2396C12.6677 2.53931 13.9757 3.27909 15.0024 4.36539C16.029 5.4517 16.7282 6.83573 17.0114 8.34248C17.2947 9.84922 17.1493 11.411 16.5937 12.8303C16.0381 14.2497 15.0972 15.4628 13.8899 16.3163C12.6827 17.1698 11.2634 17.6253 9.81152 17.6253C7.86524 17.623 5.99929 16.804 4.62306 15.3478C3.24683 13.8916 2.47271 11.9172 2.47055 9.85784Z" fill="#434343"/>
</svg>
