<svg width="15" height="15" viewBox="0 0 15 15" fill="none" xmlns="http://www.w3.org/2000/svg">
<path d="M14.42 14.6798C14.2014 14.4611 14.0329 14.1978 13.9258 13.9077C13.8188 13.6177 13.7759 13.308 13.8 12.9998H2V7.21978C3.4179 5.70682 5.13771 4.50846 7.04809 3.70227C8.95847 2.89609 11.0169 2.50004 13.09 2.53978H13.81C13.7641 2.2045 13.7962 1.86315 13.9037 1.54229C14.0112 1.22142 14.1913 0.929686 14.43 0.689777L14.55 0.579776C14.08 0.579776 13.55 0.519777 13.09 0.519777C10.6504 0.461859 8.22842 0.946779 5.99917 1.93948C3.76993 2.93218 1.78913 4.40784 0.2 6.25978C0.0701779 6.43287 0 6.64341 0 6.85978V12.9998C0 13.5302 0.210714 14.0389 0.585786 14.414C0.960859 14.7891 1.46957 14.9998 2 14.9998H14.7L14.42 14.6798Z" fill="white"/>
</svg>
