<svg width="19" height="19" viewBox="0 0 19 19" fill="none" xmlns="http://www.w3.org/2000/svg">
<path d="M18.68 8.31997L16.68 7.70997C16.5371 7.22079 16.3426 6.74815 16.1 6.29997L17.1 4.43997C17.1325 4.36557 17.1404 4.28271 17.1224 4.20352C17.1044 4.12434 17.0615 4.053 17 3.99997L15.55 2.54997C15.4952 2.49061 15.422 2.45143 15.3421 2.43873C15.2623 2.42603 15.1806 2.44056 15.11 2.47997L13.27 3.47997C12.8169 3.22527 12.3374 3.02073 11.84 2.86997L11.23 0.869972C11.2041 0.796355 11.155 0.733143 11.0901 0.689856C11.0252 0.64657 10.9479 0.625554 10.87 0.629972H8.82001C8.74127 0.629062 8.66439 0.653998 8.60118 0.70096C8.53796 0.747922 8.49188 0.814318 8.47001 0.889973L7.86001 2.88997C7.35916 3.03569 6.87616 3.23694 6.42001 3.48997L4.60001 2.48997C4.53098 2.45132 4.45089 2.4372 4.3728 2.44991C4.29471 2.46262 4.22323 2.50142 4.17001 2.55997L2.69002 3.99997C2.63514 4.05776 2.59982 4.13134 2.58905 4.2103C2.57829 4.28926 2.59262 4.3696 2.63001 4.43997L3.63001 6.25997C3.36552 6.71072 3.15411 7.19059 3.00001 7.68997L1.00001 8.28997C0.92436 8.31184 0.857965 8.35792 0.811003 8.42114C0.764041 8.48435 0.739104 8.56122 0.740014 8.63997V10.69C0.745924 10.7622 0.77411 10.8308 0.820682 10.8863C0.867254 10.9419 0.929915 10.9816 1.00001 11L3.00001 11.61C3.14781 12.1005 3.34902 12.5733 3.60001 13.02L2.60001 14.93C2.56186 14.9984 2.54707 15.0774 2.5579 15.155C2.56873 15.2326 2.60458 15.3046 2.66001 15.36L4.11002 16.81C4.16665 16.8665 4.23967 16.9037 4.31868 16.9162C4.39768 16.9288 4.47864 16.9161 4.55001 16.88L6.42001 15.88C6.86504 16.1193 7.33437 16.3104 7.82001 16.45L8.42001 18.45C8.44462 18.524 8.4914 18.5886 8.55402 18.6352C8.61663 18.6817 8.69204 18.7078 8.77001 18.71H10.82C10.8984 18.7093 10.9745 18.6837 11.0374 18.637C11.1003 18.5903 11.1467 18.5248 11.17 18.45L11.78 16.4C12.2592 16.2603 12.7219 16.0692 13.16 15.83L15.05 16.83C15.1195 16.8669 15.1991 16.88 15.2768 16.8674C15.3545 16.8548 15.4258 16.817 15.48 16.76L17 15.4C17.0409 15.3413 17.0628 15.2715 17.0628 15.2C17.0628 15.1285 17.0409 15.0587 17 15L16 13.12C16.2428 12.6788 16.4372 12.2128 16.58 11.73L18.58 11.12C18.6557 11.0981 18.7221 11.052 18.769 10.9888C18.816 10.9256 18.8409 10.8487 18.84 10.77V8.66997C18.8492 8.60247 18.839 8.53375 18.8107 8.4718C18.7824 8.40984 18.7371 8.3572 18.68 8.31997V8.31997ZM9.85001 13C9.18858 13.0019 8.54145 12.8075 7.99066 12.4412C7.43987 12.075 7.01022 11.5535 6.75619 10.9428C6.50215 10.332 6.43516 9.65966 6.56372 9.01083C6.69228 8.36201 7.01058 7.76596 7.47829 7.29825C7.946 6.83054 8.54205 6.51223 9.19088 6.38368C9.8397 6.25512 10.5121 6.32211 11.1228 6.57614C11.7335 6.83018 12.255 7.25982 12.6213 7.81061C12.9875 8.3614 13.182 9.00854 13.18 9.66997C13.1774 10.5523 12.8257 11.3978 12.2018 12.0217C11.5778 12.6456 10.7324 12.9973 9.85001 13V13Z" fill="white"/>
</svg>
