<svg width="50" height="50" viewBox="0 0 50 50" fill="none" xmlns="http://www.w3.org/2000/svg">
<path d="M22.9167 8.33348H14.1667C10.6663 8.33348 8.91617 8.33348 7.57922 9.01469C6.40321 9.6139 5.44708 10.57 4.84787 11.746C4.16666 13.083 4.16666 14.8332 4.16666 18.3335V35.8335C4.16666 39.3338 4.16666 41.084 4.84787 42.4209C5.44708 43.5969 6.40321 44.5531 7.57922 45.1523C8.91617 45.8335 10.6663 45.8335 14.1667 45.8335H31.6667C35.167 45.8335 36.9172 45.8335 38.2541 45.1523C39.4301 44.5531 40.3862 43.5969 40.9855 42.4209C41.6667 41.084 41.6667 39.3338 41.6667 35.8335V27.0835M16.6666 33.3335H20.1552C21.1744 33.3335 21.6839 33.3335 22.1635 33.2184C22.5886 33.1163 22.995 32.9479 23.3679 32.7195C23.7883 32.4618 24.1487 32.1015 24.8693 31.3809L44.7917 11.4585C46.5176 9.73259 46.5176 6.93437 44.7917 5.20848C43.0658 3.48259 40.2676 3.48259 38.5417 5.20848L18.6192 25.1309C17.8986 25.8515 17.5383 26.2118 17.2806 26.6323C17.0522 27.0051 16.8838 27.4115 16.7817 27.8367C16.6666 28.3162 16.6666 28.8258 16.6666 29.8449V33.3335Z" stroke="black" stroke-width="2" stroke-linecap="round" stroke-linejoin="round"/>
</svg>
