<svg width="15" height="14" viewBox="0 0 15 14" fill="none" xmlns="http://www.w3.org/2000/svg">
<path d="M7.68004 13.81C6.34261 13.81 5.03524 13.4133 3.92335 12.6701C2.81146 11.9268 1.94502 10.8705 1.43366 9.63467C0.92231 8.39886 0.789024 7.03913 1.05067 5.72755C1.31232 4.41597 1.95714 3.21147 2.90354 2.26646C3.84995 1.32146 5.0554 0.678422 6.36737 0.418717C7.67934 0.159011 9.03886 0.294309 10.2739 0.807491C11.509 1.32067 12.564 2.18868 13.3056 3.30167C14.0472 4.41466 14.442 5.72262 14.44 7.06004C14.4348 8.85036 13.7205 10.5657 12.4536 11.8307C11.1867 13.0957 9.47036 13.8074 7.68004 13.81V13.81ZM7.68004 2.30004C6.7386 2.30004 5.8183 2.57921 5.03552 3.10225C4.25275 3.62528 3.64265 4.36869 3.28237 5.23847C2.9221 6.10824 2.82784 7.06532 3.0115 7.98867C3.19517 8.91202 3.64851 9.76017 4.31421 10.4259C4.97991 11.0916 5.82806 11.5449 6.75141 11.7286C7.67476 11.9122 8.63184 11.818 9.50161 11.4577C10.3714 11.0974 11.1148 10.4873 11.6378 9.70456C12.1609 8.92178 12.44 8.00148 12.44 7.06004C12.44 5.79761 11.9385 4.58689 11.0459 3.69421C10.1532 2.80154 8.94247 2.30004 7.68004 2.30004V2.30004Z" fill="white"/>
</svg>
